<?xml version="1.0" encoding="UTF-8"?>
<svg width="491px" height="573px" viewBox="0 0 491 573" version="1.1" xmlns="http://www.w3.org/2000/svg" xmlns:xlink="http://www.w3.org/1999/xlink">
    <!-- Generator: Sketch 49.3 (51167) - http://www.bohemiancoding.com/sketch -->
    <title>Catalyst</title>
    <desc>Created with Sketch.</desc>
    <defs></defs>
    <g id="Catalyst-Logo" stroke="none" stroke-width="1" fill="none" fill-rule="evenodd">
        <g id="Red-Catalyst" transform="translate(-295.000000, -18.000000)" fill="#FF0000" fill-rule="nonzero">
            <g id="Catalyst" transform="translate(295.000000, 18.000000)">
                <ellipse id="Head_19_" cx="245" cy="179" rx="180" ry="179"></ellipse>
                <g id="Bubbles_2_" transform="translate(0.000000, 272.000000)">
                    <path d="M174.441172,187.979891 C149.065811,187.979891 128.471756,167.486506 128.471756,142.17773 C128.471756,116.868954 149.065811,96.3755695 174.441172,96.3755695 C199.816532,96.3755695 220.410588,116.868954 220.410588,142.17773 C220.410588,167.486506 199.816532,187.979891 174.441172,187.979891 Z M174.441172,168.015605 C188.825871,168.015605 200.463713,156.434654 200.463713,142.17773 C200.463713,127.920807 188.825871,116.339855 174.441172,116.339855 C160.056472,116.339855 148.418631,127.920807 148.418631,142.17773 C148.418631,156.434654 160.056472,168.015605 174.441172,168.015605 Z" id="Head_10_"></path>
                    <path d="M316.669184,136.195163 C302.557948,136.195163 291.106006,124.799202 291.106006,110.726007 C291.106006,96.6528121 302.557948,85.2568505 316.669184,85.2568505 C330.78042,85.2568505 342.232363,96.6528121 342.232363,110.726007 C342.232363,124.799202 330.78042,136.195163 316.669184,136.195163 Z M316.669184,125.445163 C324.862372,125.445163 331.491738,118.848204 331.491738,110.726007 C331.491738,102.603809 324.862372,96.0068505 316.669184,96.0068505 C308.475996,96.0068505 301.846631,102.603809 301.846631,110.726007 C301.846631,118.848204 308.475996,125.445163 316.669184,125.445163 Z" id="Head_6_"></path>
                    <ellipse id="Head_5_" cx="253.456734" cy="197.218245" rx="19.3149153" ry="19.2204974"></ellipse>
                    <ellipse id="Head_4_" cx="40.1147153" cy="39.9596304" rx="39.5077813" ry="39.3146537"></ellipse>
                    <ellipse id="Head_3_" cx="450.99564" cy="39.9596304" rx="39.5077813" ry="39.3146537"></ellipse>
                    <ellipse id="Head_1_" cx="220.479674" cy="272.077024" rx="28.0944222" ry="27.9570871"></ellipse>
                </g>
            </g>
        </g>
    </g>
</svg>