<?xml version="1.0" encoding="UTF-8"?>
<svg width="85px" height="85px" viewBox="0 0 85 85" version="1.1" xmlns="http://www.w3.org/2000/svg" xmlns:xlink="http://www.w3.org/1999/xlink">
    <!-- Generator: Sketch 50.2 (55047) - http://www.bohemiancoding.com/sketch -->
    <title>Role select</title>
    <desc>Created with Sketch.</desc>
    <defs></defs>
    <g id="Icons" stroke="none" stroke-width="1" fill="none" fill-rule="evenodd">
        <g id="Role-select" transform="translate(1.000000, 1.000000)">
            <ellipse id="Head_22_" stroke="#010101" stroke-width="0.25" fill="#000000" cx="41.7321429" cy="41.743" rx="41.7321429" ry="41.743"></ellipse>
            <path d="M32.5335714,50.8619122 C32.5335714,47.4152283 32.845235,44.7202552 33.4685714,42.7769122 C34.0919079,40.8335691 35.1735637,39.2385851 36.7135714,37.9919122 C38.2535791,36.7452393 40.563556,35.608584 43.6435714,34.5819122 C46.5035857,33.6285741 48.5385654,32.8035823 49.7485714,32.1069122 C50.9585775,31.410242 51.7652361,30.6402497 52.1685714,29.7969122 C52.5719068,28.9535746 52.7735714,27.651921 52.7735714,25.8919122 L52.7735714,25.1219122 C52.7735714,22.9219012 52.5169073,21.308584 52.0035714,20.2819122 C51.4902355,19.2552404 50.573578,18.5402475 49.2535714,18.1369122 C47.9335648,17.7335768 45.9169183,17.5319122 43.2035714,17.5319122 L41.7735714,17.5319122 C38.7668897,17.5319122 36.603578,17.75191 35.2835714,18.1919122 C33.9635648,18.6319144 33.0469073,19.5302387 32.5335714,20.8869122 C32.0202355,22.2435856 31.7635714,24.4618968 31.7635714,27.5419122 L31.7635714,29.8519122 L16.0335714,29.8519122 L16.0335714,26.2219122 C16.0335714,19.9885477 16.7668974,15.3135944 18.2335714,12.1969122 C19.7002454,9.08022995 22.2302201,6.9352514 25.8235714,5.7619122 C29.4169227,4.588573 34.7702025,4.0019122 41.8835714,4.0019122 L43.5335714,4.0019122 C50.3536055,4.0019122 55.5602201,4.5519067 59.1535714,5.6519122 C62.7469227,6.7519177 65.2768974,8.67689845 66.7435714,11.4269122 C68.2102454,14.1769259 68.9435714,18.1552195 68.9435714,23.3619122 L68.9435714,25.3419122 C68.9435714,29.5952668 68.5952416,32.9502332 67.8985714,35.4069122 C67.2019013,37.8635911 65.9369139,39.8802376 64.1035714,41.4569122 C62.2702289,43.0335867 59.5569227,44.408573 55.9635714,45.5819122 C53.616893,46.3885829 51.9852427,47.01191 51.0685714,47.4519122 C50.1519002,47.8919144 49.5285731,48.4785752 49.1985714,49.2119122 C48.8685698,49.9452492 48.7035714,51.1185708 48.7035714,52.7319122 L48.7035714,54.3819122 L32.5335714,54.3819122 L32.5335714,50.8619122 Z M31.7635714,79.6819122 L31.7635714,62.0819122 L49.8035714,62.0819122 L49.8035714,79.6819122 L31.7635714,79.6819122 Z" id="?" fill="#FFFFFF"></path>
        </g>
    </g>
</svg>