<?xml version="1.0" encoding="UTF-8"?>
<svg width="85px" height="84px" viewBox="0 0 85 84" version="1.1" xmlns="http://www.w3.org/2000/svg" xmlns:xlink="http://www.w3.org/1999/xlink">
    <!-- Generator: Sketch 50.2 (55047) - http://www.bohemiancoding.com/sketch -->
    <title>Black ?</title>
    <desc>Created with Sketch.</desc>
    <defs></defs>
    <g id="Roles" stroke="none" stroke-width="1" fill="none" fill-rule="evenodd">
        <g id="Black-?">
            <g id="Role-?">
                <ellipse id="Head_22_" fill="#000000" cx="42.6285714" cy="42.0610878" rx="41.7321429" ry="41.743"></ellipse>
                <path d="M37.672,43.232 C37.672,41.2266566 37.8533315,39.6586723 38.216,38.528 C38.5786685,37.3973277 39.2079955,36.469337 40.104,35.744 C41.0000045,35.018663 42.343991,34.3573363 44.136,33.76 C45.8000083,33.2053306 46.9839965,32.7253354 47.688,32.32 C48.3920035,31.9146646 48.8613322,31.4666691 49.096,30.976 C49.3306678,30.4853309 49.448,29.7280051 49.448,28.704 L49.448,28.256 C49.448,26.9759936 49.2986682,26.0373363 49,25.44 C48.7013318,24.8426637 48.1680038,24.4266678 47.4,24.192 C46.6319962,23.9573322 45.4586746,23.84 43.88,23.84 L43.048,23.84 C41.2986579,23.84 40.0400038,23.9679987 39.272,24.224 C38.5039962,24.4800013 37.9706682,25.0026627 37.672,25.792 C37.3733318,26.5813373 37.224,27.871991 37.224,29.664 L37.224,31.008 L28.072,31.008 L28.072,28.896 C28.072,25.2693152 28.4986624,22.5493424 29.352,20.736 C30.2053376,18.9226576 31.6773229,17.6746701 33.768,16.992 C35.8586771,16.3093299 38.9733126,15.968 43.112,15.968 L44.072,15.968 C48.0400198,15.968 51.0693229,16.2879968 53.16,16.928 C55.2506771,17.5680032 56.7226624,18.687992 57.576,20.288 C58.4293376,21.888008 58.856,24.2026515 58.856,27.232 L58.856,28.384 C58.856,30.858679 58.6533354,32.8106595 58.248,34.24 C57.8426646,35.6693405 57.106672,36.8426621 56.04,37.76 C54.973328,38.6773379 53.3946771,39.4773299 51.304,40.16 C49.9386598,40.6293357 48.989336,40.9919987 48.456,41.248 C47.922664,41.5040013 47.560001,41.8453312 47.368,42.272 C47.175999,42.6986688 47.08,43.3813286 47.08,44.32 L47.08,45.28 L37.672,45.28 L37.672,43.232 Z M37.224,60 L37.224,49.76 L47.72,49.76 L47.72,60 L37.224,60 Z" id="?" fill="#FFFFFF"></path>
            </g>
        </g>
    </g>
</svg>