<?xml version="1.0" encoding="UTF-8"?>
<svg width="24px" height="24px" viewBox="0 0 24 24" version="1.1" xmlns="http://www.w3.org/2000/svg" xmlns:xlink="http://www.w3.org/1999/xlink">
    <!-- Generator: Sketch 49.3 (51167) - http://www.bohemiancoding.com/sketch -->
    <title>wcatalystIcon</title>
    <desc>Created with Sketch.</desc>
    <defs></defs>
    <g id="wcatalystIcon" stroke="none" stroke-width="1" fill="none" fill-rule="evenodd">
        <path d="M14.9038855,17.0945184 C14.3281652,17.0945184 13.8609407,16.63123 13.8609407,16.0591022 C13.8609407,15.4869743 14.3281652,15.023686 14.9038855,15.023686 C15.4796057,15.023686 15.9468303,15.4869743 15.9468303,16.0591022 C15.9468303,16.63123 15.4796057,17.0945184 14.9038855,17.0945184 Z M14.9243354,16.6478683 C15.2634467,16.6478683 15.5378323,16.38399 15.5378323,16.0591022 C15.5378323,15.7342144 15.2634467,15.4703361 14.9243354,15.4703361 C14.5852241,15.4703361 14.3108384,15.7342144 14.3108384,16.0591022 C14.3108384,16.38399 14.5852241,16.6478683 14.9243354,16.6478683 Z M9.06999958,19.2100003 C8.032213,19.2100003 7.18999958,18.3732844 7.18999958,17.3400003 C7.18999958,16.3067162 8.032213,15.4700003 9.06999958,15.4700003 C10.1077861,15.4700003 10.9499996,16.3067162 10.9499996,17.3400003 C10.9499996,18.3732844 10.1077861,19.2100003 9.06999958,19.2100003 Z M9.10686232,18.4033336 C9.7181404,18.4033336 10.2127447,17.9267597 10.2127447,17.3400003 C10.2127447,16.7532409 9.7181404,16.2766669 9.10686232,16.2766669 C8.49558424,16.2766669 8.00097997,16.7532409 8.00097997,17.3400003 C8.00097997,17.9267597 8.49558424,18.4033336 9.10686232,18.4033336 Z M12.3271984,20.3428829 C11.8867259,20.3428829 11.5296524,19.9974766 11.5296524,19.5713963 C11.5296524,19.1453161 11.8867259,18.7999098 12.3271984,18.7999098 C12.7676709,18.7999098 13.1247444,19.1453161 13.1247444,19.5713963 C13.1247444,19.9974766 12.7676709,20.3428829 12.3271984,20.3428829 Z M3.61554192,14.8206632 C2.72330276,14.8206632 2,14.1025817 2,13.2167832 C2,12.3309848 2.72330276,11.6129032 3.61554192,11.6129032 C4.50778109,11.6129032 5.23108384,12.3309848 5.23108384,13.2167832 C5.23108384,14.1025817 4.50778109,14.8206632 3.61554192,14.8206632 Z M20.3844581,14.8206632 C19.4922189,14.8206632 18.7689162,14.1025817 18.7689162,13.2167832 C18.7689162,12.3309848 19.4922189,11.6129032 20.3844581,11.6129032 C21.2766972,11.6129032 22,12.3309848 22,13.2167832 C22,14.1025817 21.2766972,14.8206632 20.3844581,14.8206632 Z M10.9570552,23.7536657 C10.3245819,23.7536657 9.81186094,23.2446459 9.81186094,22.6167381 C9.81186094,21.9888303 10.3245819,21.4798105 10.9570552,21.4798105 C11.5895285,21.4798105 12.1022495,21.9888303 12.1022495,22.6167381 C12.1022495,23.2446459 11.5895285,23.7536657 10.9570552,23.7536657 Z M11.9795501,15.0642905 C7.9136501,15.0642905 4.61758691,11.8101996 4.61758691,7.79607489 C4.61758691,3.78195023 7.9136501,0.527859238 11.9795501,0.527859238 C16.0454501,0.527859238 19.3415133,3.78195023 19.3415133,7.79607489 C19.3415133,11.8101996 16.0454501,15.0642905 11.9795501,15.0642905 Z" id="Combined-Shape" fill="#FFFFFF" fill-rule="nonzero"></path>
    </g>
</svg>