<?xml version="1.0" encoding="UTF-8"?>
<svg width="959px" height="407px" viewBox="0 0 959 407" version="1.1" xmlns="http://www.w3.org/2000/svg" xmlns:xlink="http://www.w3.org/1999/xlink">
    <!-- Generator: Sketch 50.2 (55047) - http://www.bohemiancoding.com/sketch -->
    <title>sm - max</title>
    <desc>Created with Sketch.</desc>
    <defs>
        <polygon id="path-1" points="3.40437248e-15 236.986535 453 236.986535 453 9.12996396e-14 2.88657986e-15 9.12996396e-14"></polygon>
        <polygon id="path-3" points="0.446094198 0.559528421 241.345207 0.559528421 241.345207 6.10454828 145.919115 220.796132 0.446094198 220.796132 0.446094198 0.559528421"></polygon>
    </defs>
    <g id="sm---max" stroke="none" stroke-width="1" fill="none" fill-rule="evenodd">
        <g id="Box-Office-Rising" transform="translate(0.000000, -46.000000)">
            <g id="Box-Office" transform="translate(0.000000, 215.000000)">
                <mask id="mask-2" fill="white">
                    <use xlink:href="#path-1"></use>
                </mask>
                <g id="Clip-36"></g>
                <polyline id="Stroke-35" stroke="#FF0000" stroke-width="10" stroke-linecap="round" stroke-linejoin="round" mask="url(#mask-2)" points="-3.24731183 236.986535 51.3797391 186.297619 78.3573888 195.844181 95.6103103 172.847172 124.705714 180.141462 154.267871 147.363546 181.780042 157.949865 242.768827 107.564077 258.742625 120.884154 285.968476 120.884154 306.859699 130.793031 331.974572 106.114817 363.533348 106.31317 378.905704 68.0661372 414.239165 68.0661372 453 1.5489316"></polyline>
                <polyline id="Stroke-37" stroke="#FF0000" stroke-width="10" stroke-linecap="round" stroke-linejoin="round" mask="url(#mask-2)" points="0 230.790809 50.6265959 183.826401 77.3786513 193.46062 94.7023441 170.580154 124.205365 177.805818 153.708386 144.087658 181.840595 154.925351 242.989485 104.348112 259.550483 118.798637 286.302539 118.798637 306.685502 128.432856 330.889581 104.348112 362.738439 104.348112 378.025449 65.900354 413.695422 65.900354 449.752688 4.64679481"></polyline>
                <polyline id="Stroke-38" stroke="#FF0000" stroke-width="2" stroke-linecap="round" stroke-linejoin="round" mask="url(#mask-2)" points="0 224.595082 50.0201775 178.366319 76.3662553 187.602001 93.0648445 165.180136 122.575509 171.997406 152.528672 138.201169 180.865569 149.218293 242.988636 98.342917 260.212957 113.009239 286.302539 113.633422 305.764833 122.358409 329.1026 99.2484231 359.793827 99.2484231 375.187003 60.9758054 411.294379 60.9758054 447.310028 0 449.752688 0"></polyline>
            </g>
            <g id="Story" transform="translate(446.400000, 0.000000)">
                <mask id="mask-4" fill="white">
                    <use xlink:href="#path-3"></use>
                </mask>
                <g id="Clip-41"></g>
                <polyline id="Fill-40" fill="#010000" mask="url(#mask-4)" points="1.5238116 190.880012 29.8149242 209.3903 0.446094198 220.796132 1.5238116 190.880012"></polyline>
                <polygon id="Stroke-42" stroke="#010000" stroke-width="8.175" stroke-linecap="round" stroke-linejoin="round" mask="url(#mask-4)" points="136.039765 -34.740498 3.14822116 145.653019 0.446094198 220.796132 74.2033584 192.1475 241.345207 -34.7397208"></polygon>
                <path d="M13.3127372,148.57267 L11.8111891,190.332141 L26.7631782,200.119225 L67.7535454,184.192871 L118.524177,117.38984 C118.524177,117.38984 82.9215727,117.271717 76.7545884,107.958677 C70.0804915,97.8786175 45.9567727,104.700202 45.9567727,104.700202 L13.3127372,148.57267 Z" id="Fill-43" fill="#FF0000" mask="url(#mask-4)"></path>
                <path d="M13.3127372,148.57267 L11.8111891,190.332141 L26.7631782,200.119225 L67.7535454,184.194425 L105.379653,134.687039 C105.379653,134.687039 96.2145201,131.001146 78.89683,131.001146 C65.1973679,131.001146 53.8240273,135.468048 46.7219768,130.406647 C37.9963413,124.188887 36.8031836,117.002056 36.8031836,117.002056 L13.3127372,148.57267 Z" id="Fill-44" stroke="#FFFFFF" stroke-width="3" fill="#FF0000" mask="url(#mask-4)"></path>
                <path d="M19.9299386,139.635757 L13.3127372,148.528374 L11.8111891,190.288622 L26.7631782,200.073375 L67.7535454,184.150129 L84.5105256,162.100823 C84.5105256,162.100823 90.4408573,150.015787 73.1248164,150.015787 C60.658916,150.015787 48.8015509,163.890537 36.3653352,157.826648 C21.7242102,150.688775 19.9299386,139.635757 19.9299386,139.635757" id="Fill-45" stroke="#FFFFFF" stroke-width="3" fill="#FF0000" mask="url(#mask-4)"></path>
                <path d="M40.6184846,147.05184 C40.6184846,149.627225 38.4020314,151.716131 35.6693952,151.716131 C32.9359345,151.716131 30.7203058,149.627225 30.7203058,147.05184 C30.7203058,144.474124 32.9359345,142.387549 35.6693952,142.387549 C38.4020314,142.387549 40.6184846,144.474124 40.6184846,147.05184" id="Fill-46" fill="#FFFFFF" mask="url(#mask-4)"></path>
                <path d="M28.5252915,167.926136 C28.5252915,169.429092 27.233185,170.646066 25.6409338,170.646066 C24.0462089,170.646066 22.754927,169.429092 22.754927,167.926136 C22.754927,166.423958 24.0462089,165.206206 25.6409338,165.206206 C27.233185,165.206206 28.5252915,166.423958 28.5252915,167.926136" id="Fill-47" fill="#FFFFFF" mask="url(#mask-4)"></path>
                <path d="M69.0464765,179.264358 C65.6211986,179.264358 62.8448601,176.647785 62.8448601,173.419617 C62.8448601,170.189118 65.6211986,167.572545 69.0464765,167.572545 C72.4725788,167.572545 75.2489174,170.189118 75.2489174,173.419617 C75.2489174,176.647785 72.4725788,179.264358 69.0464765,179.264358 Z" id="Fill-48" fill="#FFFFFF" mask="url(#mask-4)"></path>
                <path d="M47.1243686,172.579547 C47.1243686,174.14001 45.7811386,175.405943 44.1245706,175.405943 C42.4671782,175.405943 41.1239481,174.14001 41.1239481,172.579547 C41.1239481,171.016753 42.4671782,169.75082 44.1245706,169.75082 C45.7811386,169.75082 47.1243686,171.016753 47.1243686,172.579547" id="Fill-49" fill="#FFFFFF" mask="url(#mask-4)"></path>
                <path d="M24.0140505,197.883443 C21.2814143,197.883443 19.0649611,195.79376 19.0649611,193.219152 C19.0649611,190.642213 21.2814143,188.553307 24.0140505,188.553307 C26.7475113,188.553307 28.9631399,190.642213 28.9631399,193.219152 C28.9631399,195.79376 26.7475113,197.883443 24.0140505,197.883443 Z" id="Fill-50" fill="#FFFFFF" mask="url(#mask-4)"></path>
                <path d="M40.3348314,131.869969 C40.3348314,133.759932 38.7079481,135.293972 36.7017611,135.293972 C34.6947495,135.293972 33.0670416,133.759932 33.0670416,131.869969 C33.0670416,129.977675 34.6947495,128.444412 36.7017611,128.444412 C38.7079481,128.444412 40.3348314,129.977675 40.3348314,131.869969" id="Fill-51" fill="#FFFFFF" mask="url(#mask-4)"></path>
                <path d="M50.809387,142.051832 C50.809387,143.897499 49.2212587,145.39346 47.2628969,145.39346 C45.3045352,145.39346 43.7188805,143.897499 43.7188805,142.051832 C43.7188805,140.204611 45.3045352,138.709427 47.2628969,138.709427 C49.2212587,138.709427 50.809387,140.204611 50.809387,142.051832" id="Fill-52" fill="#FFFFFF" mask="url(#mask-4)"></path>
                <path d="M71.1112082,140.476604 C71.1112082,142.322271 69.5230799,143.819009 67.5647181,143.819009 C65.6063563,143.819009 64.0190526,142.322271 64.0190526,140.476604 C64.0190526,138.630938 65.6063563,137.134199 67.5647181,137.134199 C69.5230799,137.134199 71.1112082,138.630938 71.1112082,140.476604" id="Fill-53" fill="#FFFFFF" mask="url(#mask-4)"></path>
                <path d="M60.6622143,123.540767 C60.6622143,125.385656 59.0749106,126.882395 57.118198,126.882395 C55.1598362,126.882395 53.5717078,125.385656 53.5717078,123.540767 C53.5717078,121.694323 55.1598362,120.198362 57.118198,120.198362 C59.0749106,120.198362 60.6622143,121.694323 60.6622143,123.540767" id="Fill-54" fill="#FFFFFF" mask="url(#mask-4)"></path>
                <path d="M101.617125,124.721994 C101.617125,126.56766 100.029821,128.063622 98.0714594,128.063622 C96.1147468,128.063622 94.5266184,126.56766 94.5266184,124.721994 C94.5266184,122.87555 96.1147468,121.379588 98.0714594,121.379588 C100.029821,121.379588 101.617125,122.87555 101.617125,124.721994" id="Fill-55" fill="#FFFFFF" mask="url(#mask-4)"></path>
                <path d="M64.2087044,110.937389 C64.2087044,113.540751 61.9683386,115.651416 59.2068423,115.651416 C56.4445215,115.651416 54.2041556,113.540751 54.2041556,110.937389 C54.2041556,108.333251 56.4445215,106.221808 59.2068423,106.221808 C61.9683386,106.221808 64.2087044,108.333251 64.2087044,110.937389" id="Fill-56" fill="#FFFFFF" mask="url(#mask-4)"></path>
                <path d="M83.2307877,118.814306 C83.2307877,121.311979 81.0803003,123.337938 78.4292969,123.337938 C75.7799427,123.337938 73.6302799,121.311979 73.6302799,118.814306 C73.6302799,116.315079 75.7799427,114.289897 78.4292969,114.289897 C81.0803003,114.289897 83.2307877,116.315079 83.2307877,118.814306" id="Fill-57" fill="#FFFFFF" mask="url(#mask-4)"></path>
                <path d="M87.4097256,139.688602 C87.4097256,141.534268 85.8215973,143.031007 83.8632355,143.031007 C81.9048737,143.031007 80.3183945,141.534268 80.3183945,139.688602 C80.3183945,137.842935 81.9048737,136.346196 83.8632355,136.346196 C85.8215973,136.346196 87.4097256,137.842935 87.4097256,139.688602" id="Fill-58" fill="#FFFFFF" mask="url(#mask-4)"></path>
            </g>
        </g>
        <text id="THE-DEAL" font-family="EurostileNextW1G-SemiBold, Eurostile Next W1G" font-size="42" font-weight="500" fill="#000000">
            <tspan x="137.252" y="77">THE DEAL</tspan>
        </text>
        <g id="Group-2" transform="translate(290.000000, 308.000000)">
            <text id="INTERDEPENDENT" font-family="SFMoviePosterCondensed, SF Movie Poster Condensed" font-size="48" font-style="condensed" font-weight="800" fill="#999999">
                <tspan x="0.2265625" y="99">INTERDEPENDENT</tspan>
            </text>
            <text id="AMELL" font-family="SFMoviePosterCondensed, SF Movie Poster Condensed" font-size="48" font-style="condensed" font-weight="800" fill="#999999">
                <tspan x="167.144531" y="98">AMELL</tspan>
            </text>
            <text id="CHRIS" font-family="SFMoviePosterCondensed, SF Movie Poster Condensed" font-size="48" font-style="condensed" font-weight="800" fill="#999999">
                <tspan x="131.039062" y="98">CHRIS</tspan>
            </text>
            <g id="Group" transform="translate(237.000000, 0.000000)">
                <text id="EASON-0" font-family="EurostileNextW1G-Regular, Eurostile Next W1G" font-size="50" font-weight="normal">
                    <tspan x="26.9780488" y="50.5" fill="#000000">EASON </tspan>
                    <tspan x="198.128049" y="50.5" font-family="EurostileNextW1G-Bold, Eurostile Next W1G" font-weight="bold" fill="#FF0000">0</tspan>
                </text>
                <path d="M32.8571429,8.14285714 C32.8571429,8.82435629 32.5469711,9.64271138 31.4285714,9.57142857 C31.3062655,10.9201629 30.5040972,11.239521 30,11 C28.7072132,11.239521 28.0013051,11.0099823 27.1428571,11 C26.8033824,10.0918141 26.5039062,9.52295749 27.1428571,8.14285714 C26.5039062,8.08582455 26.7178178,7.54690778 27.1428571,6.71428571 C27.445128,6.98802275 28.0440803,6.72854431 28.5714286,6.71428571 C29.3703518,6.32934072 29.5842634,6.12974192 30,5.28571429 C29.5842634,4.85229042 28.8997464,3.95409581 27.1428571,3.85714286 C26.1616375,2.35728144 24.6214743,1.95808383 22.8571429,2.42857143 C20.7710086,1.95808383 19.0597162,2.53692036 17.1428571,3.85714286 C16.4927391,4.8523012 15.8510045,6.38921198 15.7142857,8.14285714 C15.8510045,9.66268144 16.2146541,10.8403144 17.1428571,12.4285714 C17.3697938,12.3972084 18.3110046,13.295403 20,13.8571429 L22.8571429,16.7142857 C25.7552216,19.5828455 27.4023405,21.2195557 28.5714286,22.4285714 C28.8997439,23.6546976 29.327567,25.091809 30,26.7142857 C29.327567,29.1237653 28.4077473,31.2794323 27.1428571,32.4285714 C25.7124213,33.8742557 24.2792139,34.7924102 22.8571429,35.2857143 C22.8673765,37.2275521 23.1668527,38.5648641 22.8571429,39.5714286 C23.1668527,42.8363425 21.9154701,45.4610668 20,48.1428571 C16.9098647,49.8922266 14.0113632,51 11.4285714,51 C7.80783516,51 5.29437443,50.0818455 2.85714286,48.1428571 C1.05886218,46.4091725 0,44.2135856 0,41 C0,39.4630629 1.09094891,38.3652695 2.85714286,38.1428571 C5.1981123,38.3652695 6.16071429,39.2435042 5.71428571,41 C6.16071429,42.0379293 5.56176194,42.756485 4.28571429,43.8571429 C3.42261434,43.4750515 2.95200893,43.894209 2.85714286,43.8571429 C2.95200893,44.9720587 3.27287626,45.7704539 4.28571429,46.7142857 C5.15532614,48.8443216 7.2730505,49.8622754 10,49.5714286 C12.5353536,49.8622754 14.3536018,49.1936195 15.7142857,48.1428571 C17.0917107,46.5189554 17.7762277,44.752506 17.1428571,42.4285714 C17.7762277,41.0399126 17.412578,39.6926207 17.1428571,38.1428571 C15.9579577,37.3373195 14.6744884,35.9900275 12.8571429,33.8571429 L10,32.4285714 C8.38540725,30.8203515 7.1233291,29.5429192 7.14285714,28.1428571 C5.83984054,27.5469012 5.51897321,26.3093886 5.71428571,25.2857143 C5.51897321,21.1197419 7.80782681,18.1058 12.8571429,15.2857143 C11.4015948,14.1137641 10.9095982,12.5568934 11.4285714,11 C10.9095982,8.32533533 12.0968073,5.94012964 14.2857143,3.85714286 C16.845715,1.98801407 19.6800431,1 22.8571429,1 C25.6696563,1 27.9905967,1.66865599 30,2.42857143 C31.8838453,4.34332006 32.8571429,5.95009042 32.8571429,8.14285714 L32.8571429,8.14285714 Z M25.7142857,31 C25.7142857,28.0566922 23.6929663,25.1854804 20,22.4285714 L17.1428571,19.5714286 C15.7597226,18.6488024 14.5208494,17.5288261 14.2857143,16.7142857 C11.2606078,18.3840936 10,20.2778716 10,22.4285714 C10,24.1876656 11.5431579,26.2850757 14.2857143,28.1428571 L17.1428571,31 C19.6502759,32.6181149 21.1282299,33.9824496 22.8571429,35.2857143 C24.562351,34.0639037 25.7142857,32.4552105 25.7142857,31 L25.7142857,31 Z" id="ยง" fill="#000000"></path>
            </g>
            <g id="ED" transform="translate(96.000000, 69.000000)" fill="#999999" font-family="SFMoviePosterCondensed, SF Movie Poster Condensed" font-size="24" font-style="condensed" font-weight="800">
                <text id="DIRECTOR">
                    <tspan x="2.97460938" y="31">DIRECTOR</tspan>
                </text>
                <text id="EXECUTIVE">
                    <tspan x="0.068359375" y="14">EXECUTIVE</tspan>
                </text>
            </g>
            <g id="llc-series" transform="translate(254.000000, 69.000000)" fill="#999999" font-family="SFMoviePosterCondensed, SF Movie Poster Condensed" font-size="48" font-style="condensed" font-weight="800">
                <text id="an">
                    <tspan x="12.078125" y="29">an   </tspan>
                </text>
                <text id="llc">
                    <tspan x="185.449219" y="29">llc </tspan>
                </text>
                <text id="SERIES">
                    <tspan x="209.253906" y="29">SERIES</tspan>
                </text>
                <text id="PICTURES">
                    <tspan x="129.21875" y="29">PICTURES</tspan>
                </text>
                <text id="INTERDEPENDENT">
                    <tspan x="34.2265625" y="29">INTERDEPENDENT</tspan>
                </text>
            </g>
            <text id="presents" font-family="SFMoviePosterCondensed, SF Movie Poster Condensed" font-size="48" font-style="condensed" font-weight="800" fill="#999999">
                <tspan x="205.054688" y="98">presents</tspan>
            </text>
            <text id="by" font-family="SFMoviePosterCondensed, SF Movie Poster Condensed" font-size="24" font-style="condensed" font-weight="800" fill="#999999">
                <tspan x="541.478516" y="79">by</tspan>
            </text>
            <text id="SEASONRUNNER" font-family="SFMoviePosterCondensed, SF Movie Poster Condensed" font-size="24" font-style="condensed" font-weight="800" fill="#999999">
                <tspan x="504.855469" y="98">SEASONRUNNER</tspan>
            </text>
            <text id="SOME-DUDE" font-family="SFMoviePosterCondensed, SF Movie Poster Condensed" font-size="48" font-style="condensed" font-weight="800" fill="#999999">
                <tspan x="553.433594" y="98">SOME DUDE</tspan>
            </text>
        </g>
    </g>
</svg>