<?xml version="1.0" encoding="UTF-8"?>
<svg width="959px" height="407px" viewBox="0 0 959 407" version="1.1" xmlns="http://www.w3.org/2000/svg" xmlns:xlink="http://www.w3.org/1999/xlink">
    <!-- Generator: Sketch 50.2 (55047) - http://www.bohemiancoding.com/sketch -->
    <title>SUMMER</title>
    <desc>Created with Sketch.</desc>
    <defs></defs>
    <g id="SUMMER" stroke="none" stroke-width="1" fill="none" fill-rule="evenodd">
        <rect id="Rectangle-2" fill="#FFEC00" x="0" y="0" width="962" height="407"></rect>
        <text id="DEAL" font-family="EurostileNextW1G-SemiBold, Eurostile Next W1G" font-size="75" font-weight="500" fill="#FFFFFF">
            <tspan x="429.3" y="297">DEAL</tspan>
        </text>
        <g id="Group-2" transform="translate(279.000000, 304.000000)" fill="#000000" font-family="EurostileNextW1G-Regular, Eurostile Next W1G" font-size="50" font-weight="normal">
            <g id="Group">
                <text id="SUMMER-201Y">
                    <tspan x="36.3" y="50">SUMMER </tspan>
                    <tspan x="259" y="50" font-family="EurostileNextW1G-SemiBold, Eurostile Next W1G" font-weight="500">201Y</tspan>
                </text>
            </g>
        </g>
        <g id="Credits" transform="translate(178.000000, 368.000000)" fill="#000000" font-family="SFMoviePosterCondensed, SF Movie Poster Condensed" font-style="condensed" font-weight="800">
            <text id="SOME-DUDE" font-size="48">
                <tspan x="553.433594" y="33">SOME DUDE</tspan>
            </text>
            <text id="SEASONRUNNER" font-size="24">
                <tspan x="504.855469" y="33">SEASONRUNNER</tspan>
            </text>
            <text id="by" font-size="24">
                <tspan x="541.478516" y="14">by</tspan>
            </text>
            <text id="SERIES" font-size="48">
                <tspan x="463.253906" y="33">SERIES</tspan>
            </text>
            <text id="llc" font-size="48">
                <tspan x="439.449219" y="33">llc </tspan>
            </text>
            <text id="PICTURES" font-size="48">
                <tspan x="383.21875" y="33">PICTURES</tspan>
            </text>
            <text id="INTERDEPENDENT" font-size="48">
                <tspan x="0.2265625" y="34">INTERDEPENDENT</tspan>
            </text>
            <text id="an" font-size="48">
                <tspan x="266.078125" y="33">an   </tspan>
            </text>
            <text id="presents" font-size="48">
                <tspan x="205.054688" y="33">presents</tspan>
            </text>
            <text id="AMELL" font-size="48">
                <tspan x="167.144531" y="33">AMELL</tspan>
            </text>
            <text id="CHRIS" font-size="48">
                <tspan x="131.039062" y="33">CHRIS</tspan>
            </text>
            <text id="DIRECTOR" font-size="24">
                <tspan x="98.9746094" y="35">DIRECTOR</tspan>
            </text>
            <text id="EXECUTIVE" font-size="24">
                <tspan x="96.0683594" y="18">EXECUTIVE</tspan>
            </text>
            <text id="INTERDEPENDENT" font-size="48">
                <tspan x="288.226562" y="33">INTERDEPENDENT</tspan>
            </text>
        </g>
        <text id="THE" transform="translate(387.317280, 197.317280) rotate(45.000000) translate(-387.317280, -197.317280) " font-family="EurostileNextW1G-SemiBold, Eurostile Next W1G" font-size="75" font-weight="500" fill="#FFFFFF">
            <tspan x="319.59228" y="225.31728">THE</tspan>
        </text>
        <path d="M1254.74503,-262.210802 C1254.74503,-250.512432 1251.35255,-240.919914 1244.5675,-233.432957 C1237.78245,-225.946001 1229.0088,-222.202579 1218.2463,-222.202579 C1209.35554,-222.202579 1201.63473,-224.893164 1195.08365,-230.274414 C1188.53256,-235.655663 1185.25707,-242.323634 1185.25707,-250.278525 C1185.25707,-259.169285 1187.5967,-265.48631 1192.27605,-269.229788 C1195.5516,-272.037397 1202.10258,-275.078927 1211.92921,-278.35447 C1216.60856,-279.758275 1218.9482,-282.097913 1218.9482,-285.373457 C1218.9482,-297.071826 1211.46136,-307.6002 1196.48744,-316.958895 C1181.51353,-326.317591 1164.66813,-330.996868 1145.95074,-330.996868 C1122.554,-330.996868 1103.83689,-324.211916 1089.79885,-310.641808 C1075.76081,-297.071699 1068.74189,-279.056481 1068.74189,-256.595612 C1068.74189,-240.68583 1072.71928,-226.881962 1080.67417,-215.183593 C1085.35352,-208.632506 1095.64793,-198.104132 1111.55771,-183.598154 L1148.05644,-150.608918 C1177.06839,-124.404571 1195.08361,-105.219534 1202.10263,-93.0532297 C1211.46133,-76.6755129 1216.14061,-59.8301141 1216.14061,-42.5165277 C1216.14061,-12.5687028 1206.08016,12.6993955 1185.95896,33.2885252 C1176.60027,43.1151553 1160.92469,53.8774934 1138.93176,65.5758626 C1145.48284,82.4215141 1148.75834,98.0970936 1148.75834,112.603071 C1148.75834,148.166113 1135.07145,178.932363 1107.69727,204.902742 C1080.32308,230.873122 1048.62098,243.858117 1012.59,243.858117 C980.770437,243.858117 953.279682,233.095779 930.116911,211.570779 C906.95414,190.04578 895.372928,164.309754 895.372928,134.361929 C895.372928,108.625517 907.305086,95.757504 931.169759,95.757504 C952.226823,95.757504 962.755197,106.051914 962.755197,126.641044 C962.755197,138.807348 956.204209,147.230047 943.102036,151.909395 C932.807471,155.652873 927.660265,160.566115 927.660265,166.649266 C927.660265,173.200353 931.169724,182.558908 938.188745,194.725212 C951.758853,218.589885 974.921277,230.522043 1007.67671,230.522043 C1032.47725,230.522043 1052.36418,222.684253 1067.33809,207.008438 C1082.31201,191.332624 1089.79885,170.626821 1089.79885,144.890409 C1089.79885,127.108888 1085.82147,111.316326 1077.86657,97.5122506 C1069.91168,83.708175 1055.87385,67.9156136 1035.75266,50.1340925 L1007.67671,25.5676402 C987.087581,7.31818434 973.283712,-7.65550354 966.264691,-19.3538727 C959.245669,-31.0522418 955.736211,-45.5580019 955.736211,-62.8715883 C955.736211,-106.389521 980.770345,-141.718066 1030.83937,-168.858283 C1020.07687,-188.511543 1014.6957,-206.760725 1014.6957,-223.606376 C1014.6957,-256.36181 1027.68069,-284.320493 1053.65107,-307.483264 C1079.62145,-330.646035 1110.62166,-342.227246 1146.65264,-342.227246 C1176.13253,-342.227246 1201.51761,-334.389457 1222.80864,-318.713642 C1244.09967,-303.037827 1254.74503,-284.203736 1254.74503,-262.210802 L1254.74503,-262.210802 Z M1169.8153,-2.50830536 C1169.8153,-30.1164565 1148.05666,-63.1053626 1104.53872,-101.476013 L1081.37607,-121.831074 C1062.65868,-138.208791 1049.32274,-151.076804 1041.36784,-160.435499 C1014.22763,-141.250174 1000.65772,-119.491533 1000.65772,-95.1589256 C1000.65772,-74.5697959 1017.26916,-50.471517 1050.49253,-22.8633659 L1084.88556,5.91447831 C1104.53882,22.2921951 1120.44836,37.9677746 1132.61467,52.9416871 C1157.41521,38.9036441 1169.8153,20.4204981 1169.8153,-2.50830536 L1169.8153,-2.50830536 Z" id="ยง" fill="#FF0000" transform="translate(1075.058980, -49.184565) rotate(39.000000) translate(-1075.058980, 49.184565) "></path>
        <rect id="Rectangle-2" fill="#000000" opacity="0.495424107" x="0" y="0" width="962" height="407"></rect>
    </g>
</svg>