<?xml version="1.0" encoding="UTF-8"?>
<svg width="959px" height="407px" viewBox="0 0 959 407" version="1.1" xmlns="http://www.w3.org/2000/svg" xmlns:xlink="http://www.w3.org/1999/xlink">
    <!-- Generator: Sketch 50.2 (55047) - http://www.bohemiancoding.com/sketch -->
    <title>FALL</title>
    <desc>Created with Sketch.</desc>
    <defs></defs>
    <g id="FALL" stroke="none" stroke-width="1" fill="none" fill-rule="evenodd">
        <rect id="Rectangle-2" fill="#EE6D1F" x="0" y="0" width="962" height="407"></rect>
        <path d="M204.144982,98.0914793 C200.07502,102.582472 194.812216,104.827935 188.356414,104.827935 C183.023359,104.827935 178.392092,103.214009 174.462473,99.9861075 C170.532854,96.7582063 168.568074,92.7584755 168.568074,87.9867954 C168.568074,82.6537411 169.971489,78.8645225 172.778359,76.6190259 C174.743169,74.9349035 178.672729,73.1104649 184.567157,71.1456554 C187.374028,70.3035942 188.777442,68.9001799 188.777442,66.9353705 C188.777442,59.9181937 184.286517,53.6028294 175.30453,47.9890881 C166.322544,42.3753467 156.217961,39.5685181 144.990479,39.5685181 C130.956125,39.5685181 119.728811,43.6384196 111.308199,51.7783445 C102.887587,59.9182695 98.6773438,70.7245596 98.6773438,84.1975389 C98.6773438,93.7408992 101.063148,102.021044 105.834828,109.03822 C108.641699,112.967839 114.816722,119.283204 124.360082,127.984503 L146.253564,147.772842 C163.656162,163.491318 174.462452,174.999315 178.672758,182.297179 C184.2865,192.121226 187.093328,202.225809 187.093328,212.611231 C187.093328,230.575203 181.058647,245.732077 168.989103,258.082308 C163.375362,263.976737 153.972486,270.432443 140.780194,277.449619 C144.709812,287.554354 146.674593,296.95723 146.674593,305.658529 C146.674593,326.990746 138.464619,345.445644 122.044425,361.023776 C105.624232,376.601908 86.6079682,384.390858 64.9950639,384.390858 C45.9083433,384.390858 29.4182253,377.935152 15.5242154,365.023547 C1.63020555,352.111942 -5.3166952,336.674385 -5.3166952,318.710412 C-5.3166952,303.272623 1.84071769,295.553845 16.1557582,295.553845 C28.7866763,295.553845 35.1020406,301.728868 35.1020406,314.079099 C35.1020406,321.376962 31.1724806,326.429254 23.3132427,329.236125 C17.1381271,331.481621 14.0506157,334.428791 14.0506157,338.077723 C14.0506157,342.007342 16.1557371,347.620999 20.3660432,354.918863 C28.5059682,369.233903 42.3997696,376.391316 62.0478645,376.391316 C76.9242791,376.391316 88.8533006,371.689878 97.8352868,362.286862 C106.817273,352.883845 111.308199,340.463628 111.308199,325.02584 C111.308199,314.359731 108.922394,304.886685 104.150714,296.606416 C99.3790341,288.326147 90.9585483,278.853101 78.8890044,268.186992 L62.0478645,253.450995 C49.6976334,242.504199 41.4174891,233.522348 37.2071831,226.505171 C32.9968771,219.487994 30.8917556,210.786826 30.8917556,200.401404 C30.8917556,174.297507 45.9082885,153.105951 75.9418049,136.826101 C69.4860023,125.037244 66.2581494,114.090613 66.2581494,103.985878 C66.2581494,84.3377835 74.0470987,67.5669827 89.6252311,53.6729728 C105.203363,39.7789629 123.798603,32.8320621 145.411507,32.8320621 C163.094792,32.8320621 178.321837,37.5335 191.093099,46.9365168 C203.864361,56.3395336 210.249896,67.6370187 210.249896,80.8293109 C210.249896,87.8464876 208.214945,93.6004862 204.144982,98.0914793 Z M159.305447,236.609855 C159.305447,220.049318 146.253695,200.261177 120.149797,177.244837 L106.255857,165.03501 C95.028374,155.210963 87.0289125,147.492184 82.2572323,141.878443 C65.9773824,153.386613 57.8375795,166.438366 57.8375795,181.034093 C57.8375795,193.384324 67.8018209,207.839492 87.7306028,224.400029 L108.360999,241.662197 C120.149856,251.486244 129.693073,260.88912 136.990937,269.871106 C151.867352,261.450494 159.305447,250.363521 159.305447,236.609855 L159.305447,236.609855 Z" id="§" fill="#5B2D05" transform="translate(102.466600, 208.611460) rotate(-17.000000) translate(-102.466600, -208.611460) "></path>
        <path d="M1156.34287,-108.869394 C1156.34287,-101.275873 1154.14078,-95.0492788 1149.73654,-90.1894253 C1145.33229,-85.3295719 1139.63724,-82.8996817 1132.6512,-82.8996817 C1126.88012,-82.8996817 1121.86847,-84.6461653 1117.6161,-88.1391849 C1113.36373,-91.6322046 1111.23758,-95.9604466 1111.23758,-101.124041 C1111.23758,-106.895117 1112.75626,-110.995557 1115.79367,-113.425483 C1117.91985,-115.247928 1122.17216,-117.222214 1128.55072,-119.3484 C1131.58813,-120.259623 1133.10681,-121.778304 1133.10681,-123.90449 C1133.10681,-131.498011 1128.24703,-138.332077 1118.52732,-144.406894 C1108.80761,-150.481711 1097.87311,-153.519074 1085.72347,-153.519074 C1070.53643,-153.519074 1058.38698,-149.114897 1049.27476,-140.306413 C1040.16253,-131.497929 1035.60649,-119.804082 1035.60649,-105.224522 C1035.60649,-94.8973332 1038.18824,-85.9371128 1043.35184,-78.3435919 C1046.38925,-74.0912201 1053.07144,-67.2571538 1063.39863,-57.8411878 L1087.0903,-36.4275657 C1105.92223,-19.4180787 1117.61608,-6.96489111 1122.17219,0.932370696 C1128.24701,11.5633001 1131.28437,22.4978062 1131.28437,33.7362173 C1131.28437,53.175631 1124.75404,69.5773902 1111.69319,82.9419871 C1105.61837,89.3205447 1095.4432,96.3064793 1081.16738,103.9 C1085.41976,114.83467 1087.54591,125.009836 1087.54591,134.425802 C1087.54591,157.510106 1078.66162,177.480766 1060.89278,194.338383 C1043.12394,211.195999 1022.54581,219.624681 999.157767,219.624681 C978.50339,219.624681 960.658884,212.638747 945.623712,198.666668 C930.58854,184.69459 923.071068,167.989094 923.071068,148.54968 C923.071068,131.843934 930.816343,123.491186 946.307125,123.491186 C959.975463,123.491186 966.80953,130.173385 966.80953,143.537981 C966.80953,151.435243 962.557222,156.902496 954.052478,159.939905 C947.37018,162.369831 944.029081,165.559062 944.029081,169.507693 C944.029081,173.760065 946.307103,179.834791 950.863215,187.732053 C959.6717,203.222835 974.706646,210.968111 995.968504,210.968111 C1012.06677,210.968111 1024.97556,205.880528 1034.69527,195.70521 C1044.41497,185.529892 1049.27476,172.089561 1049.27476,155.383815 C1049.27476,143.841663 1046.693,133.590564 1041.5294,124.630209 C1036.36581,115.669854 1027.25372,105.418755 1014.19286,93.8766027 L995.968504,77.9302883 C982.603907,66.0843956 973.643687,56.3648346 969.087575,48.7713136 C964.531462,41.1777926 962.25344,31.7619679 962.25344,20.5235568 C962.25344,-7.72434117 978.503331,-30.6564305 1011.0036,-48.2733992 C1004.01756,-61.0305144 1000.52459,-72.8762294 1000.52459,-83.8108996 C1000.52459,-105.072758 1008.95328,-123.221001 1025.81089,-138.256173 C1042.66851,-153.291344 1062.79104,-160.808817 1086.17908,-160.808817 C1105.31476,-160.808817 1121.79245,-155.721235 1135.61266,-145.545916 C1149.43286,-135.370598 1156.34287,-123.145213 1156.34287,-108.869394 L1156.34287,-108.869394 Z M1101.21418,59.7059291 C1101.21418,41.7852197 1087.09044,20.3718117 1058.84254,-4.53493707 L1043.80745,-17.7475975 C1031.65781,-28.3785269 1023.00133,-36.7312746 1017.83774,-42.8060914 C1000.22077,-30.352717 991.412415,-16.2289799 991.412415,-0.434456245 C991.412415,12.9301407 1002.19505,28.5725592 1023.76065,46.4932687 L1046.08549,65.1732369 C1058.84261,75.8041663 1069.16964,85.9793317 1077.0669,95.6990386 C1093.16517,86.5868134 1101.21418,74.5892302 1101.21418,59.7059291 L1101.21418,59.7059291 Z" id="§" fill="#5B2D05" transform="translate(1039.706966, 29.407932) scale(-1, 1) rotate(48.000000) translate(-1039.706966, -29.407932) "></path>
        <path d="M64.5909139,-218.330104 C64.5909139,-210.736583 62.3888258,-204.509989 57.9845837,-199.650136 C53.5803415,-194.790283 47.8852862,-192.360392 40.8992469,-192.360392 C35.128171,-192.360392 30.1165223,-194.106876 25.8641506,-197.599896 C21.6117788,-201.092915 19.4856248,-205.421157 19.4856248,-210.584751 C19.4856248,-216.355827 21.0043062,-220.456267 24.0417146,-222.886194 C26.1679005,-224.708639 30.4202085,-226.682925 36.7987661,-228.809111 C39.8361745,-229.720333 41.3548559,-231.239015 41.3548559,-233.3652 C41.3548559,-240.958721 36.4950754,-247.792788 26.7753685,-253.867605 C17.0556617,-259.942421 6.12115549,-262.979784 -6.02847806,-262.979784 C-21.21552,-262.979784 -33.3649713,-258.575608 -42.4771965,-249.767124 C-51.5894216,-240.958639 -56.1454659,-229.264793 -56.1454659,-214.685232 C-56.1454659,-204.358044 -53.5637075,-195.397823 -48.4001132,-187.804302 C-45.3627048,-183.551931 -38.6805066,-176.717864 -28.3533181,-167.301898 L-4.66165112,-145.888276 C14.1702809,-128.878789 25.8641278,-116.425602 30.4202404,-108.52834 C36.4950571,-97.8974106 39.53242,-86.9629044 39.53242,-75.7244933 C39.53242,-56.2850797 33.0020899,-39.8833204 19.9412338,-26.5187235 C13.866417,-20.1401659 3.69125156,-13.1542314 -10.5845679,-5.56071039 C-6.33219612,5.37395981 -4.20604214,15.5491253 -4.20604214,24.9650913 C-4.20604214,48.049395 -13.0903284,68.0200556 -30.8591675,84.8776722 C-48.6280066,101.735289 -69.2061397,110.163971 -92.5941843,110.163971 C-113.248561,110.163971 -131.093068,103.178036 -146.128239,89.2059575 C-161.163411,75.2338789 -168.680884,58.5283834 -168.680884,39.0889697 C-168.680884,22.3832235 -160.935609,14.0304758 -145.444826,14.0304758 C-131.776488,14.0304758 -124.942422,20.712674 -124.942422,34.0772709 C-124.942422,41.9745327 -129.19473,47.4417858 -137.699473,50.4791942 C-144.381772,52.9091209 -147.722871,56.0983519 -147.722871,60.0469828 C-147.722871,64.2993545 -145.444849,70.3740802 -140.888736,78.271342 C-132.080252,93.7621247 -117.045306,101.5074 -95.7834472,101.5074 C-79.6851827,101.5074 -66.7763907,96.4198172 -57.0566838,86.2444991 C-47.336977,76.069181 -42.4771965,62.6288505 -42.4771965,45.9231044 C-42.4771965,34.3809525 -45.0589549,24.129853 -50.2225491,15.1694982 C-55.3861434,6.20914346 -64.4982319,-4.04195608 -77.559088,-15.584108 L-95.7834472,-31.5304223 C-109.148044,-43.376315 -118.108264,-53.095876 -122.664377,-60.689397 C-127.22049,-68.282918 -129.498512,-77.6987427 -129.498512,-88.9371538 C-129.498512,-117.185052 -113.248621,-140.117141 -80.7483508,-157.73411 C-87.7343901,-170.491225 -91.2273574,-182.33694 -91.2273574,-193.27161 C-91.2273574,-214.533469 -82.7986755,-232.681712 -65.941059,-247.716883 C-49.0834424,-262.752055 -28.9609137,-270.269528 -5.57286908,-270.269528 C13.5628038,-270.269528 30.0404971,-265.181945 43.8607053,-255.006627 C57.6809134,-244.831309 64.5909139,-232.605924 64.5909139,-218.330104 L64.5909139,-218.330104 Z M9.46222726,-49.7547815 C9.46222726,-67.675491 -4.66150988,-89.0888989 -32.9094079,-113.995648 L-47.9445042,-127.208308 C-60.0941378,-137.839237 -68.7506219,-146.191985 -73.9142161,-152.266802 C-91.5311848,-139.813428 -100.339537,-125.68969 -100.339537,-109.895167 C-100.339537,-96.5305699 -89.5568989,-80.8881514 -67.9912994,-62.9674419 L-45.6664593,-44.2874737 C-32.9093441,-33.6565443 -22.5823105,-23.4813789 -14.6850487,-13.761672 C1.41321577,-22.8738972 9.46222726,-34.8714804 9.46222726,-49.7547815 L9.46222726,-49.7547815 Z" id="§" transform="translate(-52.044985, -80.052779) rotate(85.000000) translate(52.044985, 80.052779) "></path>
        <text id="THE-DEAL" font-family="EurostileNextW1G-SemiBold, Eurostile Next W1G" font-size="42" font-weight="500" fill="#5B2D05">
            <tspan x="393.252" y="214">THE DEAL</tspan>
        </text>
        <g id="Group-2" transform="translate(327.000000, 302.000000)" fill="#000000" font-family="EurostileNextW1G-Regular, Eurostile Next W1G" font-size="50" font-weight="normal">
            <g id="Group">
                <text id="FALL-201X">
                    <tspan x="32.0780488" y="50.5">FALL </tspan>
                    <tspan x="148.328049" y="50.5" font-family="EurostileNextW1G-SemiBold, Eurostile Next W1G" font-weight="500">201X</tspan>
                </text>
            </g>
        </g>
        <g id="Credits" transform="translate(178.000000, 368.000000)" fill="#000000" font-family="SFMoviePosterCondensed, SF Movie Poster Condensed" font-style="condensed" font-weight="800">
            <text id="SOME-DUDE" font-size="48">
                <tspan x="553.433594" y="33">SOME DUDE</tspan>
            </text>
            <text id="SEASONRUNNER" font-size="24">
                <tspan x="504.855469" y="33">SEASONRUNNER</tspan>
            </text>
            <text id="by" font-size="24">
                <tspan x="541.478516" y="14">by</tspan>
            </text>
            <text id="SERIES" font-size="48">
                <tspan x="463.253906" y="33">SERIES</tspan>
            </text>
            <text id="llc" font-size="48">
                <tspan x="439.449219" y="33">llc </tspan>
            </text>
            <text id="PICTURES" font-size="48">
                <tspan x="383.21875" y="33">PICTURES</tspan>
            </text>
            <text id="INTERDEPENDENT" font-size="48">
                <tspan x="0.2265625" y="34">INTERDEPENDENT</tspan>
            </text>
            <text id="an" font-size="48">
                <tspan x="266.078125" y="33">an   </tspan>
            </text>
            <text id="presents" font-size="48">
                <tspan x="205.054688" y="33">presents</tspan>
            </text>
            <text id="AMELL" font-size="48">
                <tspan x="167.144531" y="33">AMELL</tspan>
            </text>
            <text id="CHRIS" font-size="48">
                <tspan x="131.039062" y="33">CHRIS</tspan>
            </text>
            <text id="DIRECTOR" font-size="24">
                <tspan x="98.9746094" y="35">DIRECTOR</tspan>
            </text>
            <text id="EXECUTIVE" font-size="24">
                <tspan x="96.0683594" y="18">EXECUTIVE</tspan>
            </text>
            <text id="INTERDEPENDENT" font-size="48">
                <tspan x="288.226562" y="33">INTERDEPENDENT</tspan>
            </text>
        </g>
        <path d="M851.916673,73.2079127 C851.916673,73.8894118 851.606501,74.7077669 850.488101,74.6364841 C850.365795,75.9852184 849.563627,76.3045765 849.05953,76.0650555 C847.766743,76.3045765 847.060835,76.0750379 846.202387,76.0650555 C845.862912,75.1568696 845.563436,74.588013 846.202387,73.2079127 C845.563436,73.1508801 845.777348,72.6119633 846.202387,71.7793412 C846.504658,72.0530783 847.10361,71.7935998 847.630958,71.7793412 C848.429882,71.3943962 848.643793,71.1947974 849.05953,70.3507698 C848.643793,69.9173459 847.959276,69.0191513 846.202387,68.9221984 C845.221167,67.422337 843.681004,67.0231394 841.916673,67.493627 C839.830539,67.0231394 838.119246,67.6019759 836.202387,68.9221984 C835.552269,69.9173567 834.910534,71.4542675 834.773816,73.2079127 C834.910534,74.727737 835.274184,75.9053699 836.202387,77.493627 C836.429324,77.4622639 837.370535,78.3604585 839.05953,78.9221984 L841.916673,81.7793412 C844.814751,84.647901 846.46187,86.2846112 847.630958,87.493627 C847.959274,88.7197531 848.387097,90.1568645 849.05953,91.7793412 C848.387097,94.1888208 847.467277,96.3444879 846.202387,97.493627 C844.771951,98.9393112 843.338744,99.8574657 841.916673,100.35077 C841.926906,102.292608 842.226383,103.62992 841.916673,104.636484 C842.226383,107.901398 840.975,110.526122 839.05953,113.207913 C835.969395,114.957282 833.070893,116.065056 830.488101,116.065056 C826.867365,116.065056 824.353904,115.146901 821.916673,113.207913 C820.118392,111.474228 819.05953,109.278641 819.05953,106.065056 C819.05953,104.528118 820.150479,103.430325 821.916673,103.207913 C824.257642,103.430325 825.220244,104.30856 824.773816,106.065056 C825.220244,107.102985 824.621292,107.821541 823.345244,108.922198 C822.482144,108.540107 822.011539,108.959265 821.916673,108.922198 C822.011539,110.037114 822.332406,110.835509 823.345244,111.779341 C824.214856,113.909377 826.33258,114.927331 829.05953,114.636484 C831.594883,114.927331 833.413132,114.258675 834.773816,113.207913 C836.151241,111.584011 836.835758,109.817562 836.202387,107.493627 C836.835758,106.104968 836.472108,104.757676 836.202387,103.207913 C835.017488,102.402375 833.734018,101.055083 831.916673,98.9221984 L829.05953,97.493627 C827.444937,95.885407 826.182859,94.6079747 826.202387,93.2079127 C824.89937,92.6119567 824.578503,91.3744442 824.773816,90.3507698 C824.578503,86.1847974 826.867357,83.1708555 831.916673,80.3507698 C830.461125,79.1788196 829.969128,77.6219489 830.488101,76.0650555 C829.969128,73.3903909 831.156337,71.0051852 833.345244,68.9221984 C835.905245,67.0530696 838.739573,66.0650555 841.916673,66.0650555 C844.729186,66.0650555 847.050127,66.7337115 849.05953,67.493627 C850.943375,69.4083756 851.916673,71.0151459 851.916673,73.2079127 L851.916673,73.2079127 Z M844.773816,96.0650555 C844.773816,93.1217478 842.752496,90.2505359 839.05953,87.493627 L836.202387,84.6364841 C834.819252,83.7138579 833.580379,82.5938817 833.345244,81.7793412 C830.320138,83.4491491 829.05953,85.3429271 829.05953,87.493627 C829.05953,89.2527211 830.602688,91.3501312 833.345244,93.2079127 L836.202387,96.0650555 C838.709806,97.6831704 840.18776,99.0475052 841.916673,100.35077 C843.621881,99.1289592 844.773816,97.520266 844.773816,96.0650555 L844.773816,96.0650555 Z" id="§" fill="#9D8E4F" transform="translate(835.488101, 91.065056) rotate(-47.000000) translate(-835.488101, -91.065056) "></path>
        <path d="M105.916673,140.207913 C105.916673,140.889412 105.606501,141.707767 104.488101,141.636484 C104.365795,142.985218 103.563627,143.304576 103.05953,143.065056 C101.766743,143.304576 101.060835,143.075038 100.202387,143.065056 C99.8629123,142.15687 99.5634361,141.588013 100.202387,140.207913 C99.5634361,140.15088 99.7773477,139.611963 100.202387,138.779341 C100.504658,139.053078 101.10361,138.7936 101.630958,138.779341 C102.429882,138.394396 102.643793,138.194797 103.05953,137.35077 C102.643793,136.917346 101.959276,136.019151 100.202387,135.922198 C99.2211674,134.422337 97.6810042,134.023139 95.9166727,134.493627 C93.8305385,134.023139 92.1192461,134.601976 90.202387,135.922198 C89.552269,136.917357 88.9105343,138.454268 88.7738156,140.207913 C88.9105343,141.727737 89.274184,142.90537 90.202387,144.493627 C90.4293237,144.462264 91.3705345,145.360459 93.0595299,145.922198 L95.9166727,148.779341 C98.8147515,151.647901 100.46187,153.284611 101.630958,154.493627 C101.959274,155.719753 102.387097,157.156865 103.05953,158.779341 C102.387097,161.188821 101.467277,163.344488 100.202387,164.493627 C98.7719512,165.939311 97.3387438,166.857466 95.9166727,167.35077 C95.9269064,169.292608 96.2263826,170.62992 95.9166727,171.636484 C96.2263826,174.901398 94.975,177.526122 93.0595299,180.207913 C89.9693946,181.957282 87.0708931,183.065056 84.4881013,183.065056 C80.867365,183.065056 78.3539043,182.146901 75.9166727,180.207913 C74.1183921,178.474228 73.0595299,176.278641 73.0595299,173.065056 C73.0595299,171.528118 74.1504788,170.430325 75.9166727,170.207913 C78.2576422,170.430325 79.2202442,171.30856 78.7738156,173.065056 C79.2202442,174.102985 78.6212918,174.821541 77.3452442,175.922198 C76.4821442,175.540107 76.0115388,175.959265 75.9166727,175.922198 C76.0115388,177.037114 76.3324061,177.835509 77.3452442,178.779341 C78.214856,180.909377 80.3325804,181.927331 83.0595299,181.636484 C85.5948835,181.927331 87.4131317,181.258675 88.7738156,180.207913 C90.1512406,178.584011 90.8357576,176.817562 90.202387,174.493627 C90.8357576,173.104968 90.4721079,171.757676 90.202387,170.207913 C89.0174876,169.402375 87.7340182,168.055083 85.9166727,165.922198 L83.0595299,164.493627 C81.4449371,162.885407 80.182859,161.607975 80.202387,160.207913 C78.8993704,159.611957 78.5785031,158.374444 78.7738156,157.35077 C78.5785031,153.184797 80.8673567,150.170856 85.9166727,147.35077 C84.4611247,146.17882 83.9691281,144.621949 84.4881013,143.065056 C83.9691281,140.390391 85.1563372,138.005185 87.3452442,135.922198 C89.9052449,134.05307 92.7395729,133.065056 95.9166727,133.065056 C98.7291862,133.065056 101.050127,133.733712 103.05953,134.493627 C104.943375,136.408376 105.916673,138.015146 105.916673,140.207913 L105.916673,140.207913 Z M98.7738156,163.065056 C98.7738156,160.121748 96.7524962,157.250536 93.0595299,154.493627 L90.202387,151.636484 C88.8192525,150.713858 87.5803793,149.593882 87.3452442,148.779341 C84.3201377,150.449149 83.0595299,152.342927 83.0595299,154.493627 C83.0595299,156.252721 84.6026877,158.350131 87.3452442,160.207913 L90.202387,163.065056 C92.7098058,164.68317 94.1877598,166.047505 95.9166727,167.35077 C97.6218809,166.128959 98.7738156,164.520266 98.7738156,163.065056 L98.7738156,163.065056 Z" id="§" fill="#9D8E4F" transform="translate(89.488101, 158.065056) rotate(-47.000000) translate(-89.488101, -158.065056) "></path>
        <path d="M92.762419,370.740328 C92.762419,371.421827 92.4522472,372.240182 91.3338475,372.1689 C91.2115416,373.517634 90.4093733,373.836992 89.9052761,373.597471 C88.6124893,373.836992 87.9065812,373.607453 87.0481333,373.597471 C86.7086585,372.689285 86.4091824,372.120429 87.0481333,370.740328 C86.4091824,370.683296 86.6230939,370.144379 87.0481333,369.311757 C87.3504041,369.585494 87.9493564,369.326015 88.4767047,369.311757 C89.275628,368.926812 89.4895395,368.727213 89.9052761,367.883185 C89.4895395,367.449761 88.8050225,366.551567 87.0481333,366.454614 C86.0669136,364.954752 84.5267504,364.555555 82.762419,365.026042 C80.6762848,364.555555 78.9649924,365.134391 77.0481333,366.454614 C76.3980152,367.449772 75.7562806,368.986683 75.6195618,370.740328 C75.7562806,372.260152 76.1199302,373.437785 77.0481333,375.026042 C77.2750699,374.994679 78.2162807,375.892874 79.9052761,376.454614 L82.762419,379.311757 C85.6604977,382.180317 87.3076167,383.817027 88.4767047,385.026042 C88.80502,386.252169 89.2328431,387.68928 89.9052761,389.311757 C89.2328431,391.721236 88.3130234,393.876903 87.0481333,395.026042 C85.6176974,396.471727 84.18449,397.389881 82.762419,397.883185 C82.7726526,399.825023 83.0721288,401.162335 82.762419,402.1689 C83.0721288,405.433814 81.8207462,408.058538 79.9052761,410.740328 C76.8151408,412.489698 73.9166393,413.597471 71.3338475,413.597471 C67.7131113,413.597471 65.1996505,412.679317 62.762419,410.740328 C60.9641383,409.006643 59.9052761,406.811057 59.9052761,403.597471 C59.9052761,402.060534 60.996225,400.96274 62.762419,400.740328 C65.1033884,400.96274 66.0659904,401.840975 65.6195618,403.597471 C66.0659904,404.6354 65.4670381,405.353956 64.1909904,406.454614 C63.3278905,406.072523 62.857285,406.49168 62.762419,406.454614 C62.857285,407.56953 63.1781524,408.367925 64.1909904,409.311757 C65.0606023,411.441793 67.1783266,412.459746 69.9052761,412.1689 C72.4406297,412.459746 74.2588779,411.79109 75.6195618,410.740328 C76.9969868,409.116426 77.6815038,407.349977 77.0481333,405.026042 C77.6815038,403.637384 77.3178542,402.290092 77.0481333,400.740328 C75.8632338,399.93479 74.5797645,398.587499 72.762419,396.454614 L69.9052761,395.026042 C68.2906834,393.417823 67.0286052,392.14039 67.0481333,390.740328 C65.7451167,390.144372 65.4242493,388.90686 65.6195618,387.883185 C65.4242493,383.717213 67.7131029,380.703271 72.762419,377.883185 C71.3068709,376.711235 70.8148743,375.154364 71.3338475,373.597471 C70.8148743,370.922806 72.0020834,368.537601 74.1909904,366.454614 C76.7509911,364.585485 79.5853192,363.597471 82.762419,363.597471 C85.5749324,363.597471 87.8958728,364.266127 89.9052761,365.026042 C91.7891214,366.940791 92.762419,368.547561 92.762419,370.740328 L92.762419,370.740328 Z M85.6195618,393.597471 C85.6195618,390.654163 83.5982424,387.782951 79.9052761,385.026042 L77.0481333,382.1689 C75.6649987,381.246273 74.4261255,380.126297 74.1909904,379.311757 C71.1658839,380.981565 69.9052761,382.875343 69.9052761,385.026042 C69.9052761,386.785137 71.448434,388.882547 74.1909904,390.740328 L77.0481333,393.597471 C79.555552,395.215586 81.033506,396.579921 82.762419,397.883185 C84.4676271,396.661375 85.6195618,395.052681 85.6195618,393.597471 L85.6195618,393.597471 Z" id="§" fill="#AF8F32" transform="translate(76.333848, 388.597471) rotate(-88.000000) translate(-76.333848, -388.597471) "></path>
        <path d="M139.762419,370.740328 C139.762419,371.421827 139.452247,372.240182 138.333848,372.1689 C138.211542,373.517634 137.409373,373.836992 136.905276,373.597471 C135.612489,373.836992 134.906581,373.607453 134.048133,373.597471 C133.708659,372.689285 133.409182,372.120429 134.048133,370.740328 C133.409182,370.683296 133.623094,370.144379 134.048133,369.311757 C134.350404,369.585494 134.949356,369.326015 135.476705,369.311757 C136.275628,368.926812 136.48954,368.727213 136.905276,367.883185 C136.48954,367.449761 135.805023,366.551567 134.048133,366.454614 C133.066914,364.954752 131.52675,364.555555 129.762419,365.026042 C127.676285,364.555555 125.964992,365.134391 124.048133,366.454614 C123.398015,367.449772 122.756281,368.986683 122.619562,370.740328 C122.756281,372.260152 123.11993,373.437785 124.048133,375.026042 C124.27507,374.994679 125.216281,375.892874 126.905276,376.454614 L129.762419,379.311757 C132.660498,382.180317 134.307617,383.817027 135.476705,385.026042 C135.80502,386.252169 136.232843,387.68928 136.905276,389.311757 C136.232843,391.721236 135.313023,393.876903 134.048133,395.026042 C132.617697,396.471727 131.18449,397.389881 129.762419,397.883185 C129.772653,399.825023 130.072129,401.162335 129.762419,402.1689 C130.072129,405.433814 128.820746,408.058538 126.905276,410.740328 C123.815141,412.489698 120.916639,413.597471 118.333848,413.597471 C114.713111,413.597471 112.199651,412.679317 109.762419,410.740328 C107.964138,409.006643 106.905276,406.811057 106.905276,403.597471 C106.905276,402.060534 107.996225,400.96274 109.762419,400.740328 C112.103388,400.96274 113.06599,401.840975 112.619562,403.597471 C113.06599,404.6354 112.467038,405.353956 111.19099,406.454614 C110.32789,406.072523 109.857285,406.49168 109.762419,406.454614 C109.857285,407.56953 110.178152,408.367925 111.19099,409.311757 C112.060602,411.441793 114.178327,412.459746 116.905276,412.1689 C119.44063,412.459746 121.258878,411.79109 122.619562,410.740328 C123.996987,409.116426 124.681504,407.349977 124.048133,405.026042 C124.681504,403.637384 124.317854,402.290092 124.048133,400.740328 C122.863234,399.93479 121.579764,398.587499 119.762419,396.454614 L116.905276,395.026042 C115.290683,393.417823 114.028605,392.14039 114.048133,390.740328 C112.745117,390.144372 112.424249,388.90686 112.619562,387.883185 C112.424249,383.717213 114.713103,380.703271 119.762419,377.883185 C118.306871,376.711235 117.814874,375.154364 118.333848,373.597471 C117.814874,370.922806 119.002083,368.537601 121.19099,366.454614 C123.750991,364.585485 126.585319,363.597471 129.762419,363.597471 C132.574932,363.597471 134.895873,364.266127 136.905276,365.026042 C138.789121,366.940791 139.762419,368.547561 139.762419,370.740328 L139.762419,370.740328 Z M132.619562,393.597471 C132.619562,390.654163 130.598242,387.782951 126.905276,385.026042 L124.048133,382.1689 C122.664999,381.246273 121.426125,380.126297 121.19099,379.311757 C118.165884,380.981565 116.905276,382.875343 116.905276,385.026042 C116.905276,386.785137 118.448434,388.882547 121.19099,390.740328 L124.048133,393.597471 C126.555552,395.215586 128.033506,396.579921 129.762419,397.883185 C131.467627,396.661375 132.619562,395.052681 132.619562,393.597471 L132.619562,393.597471 Z" id="§" fill="#DEBA98" transform="translate(123.333848, 388.597471) rotate(-88.000000) translate(-123.333848, -388.597471) "></path>
        <path d="M92.986691,346.433908 C92.986691,347.115407 92.6765192,347.933762 91.5581195,347.86248 C91.4358136,349.211214 90.6336453,349.530572 90.1295481,349.291051 C88.8367613,349.530572 88.1308532,349.301033 87.2724053,349.291051 C86.9329305,348.382865 86.6334544,347.814008 87.2724053,346.433908 C86.6334544,346.376876 86.8473659,345.837959 87.2724053,345.005337 C87.5746761,345.279074 88.1736285,345.019595 88.7009767,345.005337 C89.4999,344.620392 89.7138115,344.420793 90.1295481,343.576765 C89.7138115,343.143341 89.0292945,342.245147 87.2724053,342.148194 C86.2911856,340.648332 84.7510225,340.249135 82.986691,340.719622 C80.9005568,340.249135 79.1892644,340.827971 77.2724053,342.148194 C76.6222872,343.143352 75.9805526,344.680263 75.8438338,346.433908 C75.9805526,347.953732 76.3442022,349.131365 77.2724053,350.719622 C77.4993419,350.688259 78.4405528,351.586454 80.1295481,352.148194 L82.986691,355.005337 C85.8847697,357.873897 87.5318887,359.510607 88.7009767,360.719622 C89.029292,361.945749 89.4571151,363.38286 90.1295481,365.005337 C89.4571151,367.414816 88.5372954,369.570483 87.2724053,370.719622 C85.8419694,372.165307 84.408762,373.083461 82.986691,373.576765 C82.9969246,375.518603 83.2964008,376.855915 82.986691,377.86248 C83.2964008,381.127394 82.0450182,383.752118 80.1295481,386.433908 C77.0394128,388.183278 74.1409113,389.291051 71.5581195,389.291051 C67.9373833,389.291051 65.4239225,388.372897 62.986691,386.433908 C61.1884103,384.700223 60.1295481,382.504637 60.1295481,379.291051 C60.1295481,377.754114 61.220497,376.65632 62.986691,376.433908 C65.3276604,376.65632 66.2902624,377.534555 65.8438338,379.291051 C66.2902624,380.32898 65.6913101,381.047536 64.4152624,382.148194 C63.5521625,381.766103 63.081557,382.18526 62.986691,382.148194 C63.081557,383.26311 63.4024244,384.061505 64.4152624,385.005337 C65.2848743,387.135373 67.4025986,388.153326 70.1295481,387.86248 C72.6649017,388.153326 74.4831499,387.48467 75.8438338,386.433908 C77.2212588,384.810006 77.9057758,383.043557 77.2724053,380.719622 C77.9057758,379.330964 77.5421262,377.983672 77.2724053,376.433908 C76.0875058,375.62837 74.8040365,374.281079 72.986691,372.148194 L70.1295481,370.719622 C68.5149554,369.111403 67.2528772,367.83397 67.2724053,366.433908 C65.9693887,365.837952 65.6485213,364.60044 65.8438338,363.576765 C65.6485213,359.410793 67.9373749,356.396851 72.986691,353.576765 C71.5311429,352.404815 71.0391463,350.847944 71.5581195,349.291051 C71.0391463,346.616386 72.2263554,344.231181 74.4152624,342.148194 C76.9752631,340.279065 79.8095912,339.291051 82.986691,339.291051 C85.7992045,339.291051 88.1201448,339.959707 90.1295481,340.719622 C92.0133934,342.634371 92.986691,344.241141 92.986691,346.433908 L92.986691,346.433908 Z M85.8438338,369.291051 C85.8438338,366.347743 83.8225144,363.476531 80.1295481,360.719622 L77.2724053,357.86248 C75.8892707,356.939853 74.6503975,355.819877 74.4152624,355.005337 C71.3901559,356.675145 70.1295481,358.568923 70.1295481,360.719622 C70.1295481,362.478717 71.672706,364.576127 74.4152624,366.433908 L77.2724053,369.291051 C79.779824,370.909166 81.257778,372.273501 82.986691,373.576765 C84.6918991,372.354955 85.8438338,370.746261 85.8438338,369.291051 L85.8438338,369.291051 Z" id="§" fill="#B63030" transform="translate(76.558120, 364.291051) rotate(-88.000000) translate(-76.558120, -364.291051) "></path>
        <path d="M45.986691,372.433908 C45.986691,373.115407 45.6765192,373.933762 44.5581195,373.86248 C44.4358136,375.211214 43.6336453,375.530572 43.1295481,375.291051 C41.8367613,375.530572 41.1308532,375.301033 40.2724053,375.291051 C39.9329305,374.382865 39.6334544,373.814008 40.2724053,372.433908 C39.6334544,372.376876 39.8473659,371.837959 40.2724053,371.005337 C40.5746761,371.279074 41.1736285,371.019595 41.7009767,371.005337 C42.4999,370.620392 42.7138115,370.420793 43.1295481,369.576765 C42.7138115,369.143341 42.0292945,368.245147 40.2724053,368.148194 C39.2911856,366.648332 37.7510225,366.249135 35.986691,366.719622 C33.9005568,366.249135 32.1892644,366.827971 30.2724053,368.148194 C29.6222872,369.143352 28.9805526,370.680263 28.8438338,372.433908 C28.9805526,373.953732 29.3442022,375.131365 30.2724053,376.719622 C30.4993419,376.688259 31.4405528,377.586454 33.1295481,378.148194 L35.986691,381.005337 C38.8847697,383.873897 40.5318887,385.510607 41.7009767,386.719622 C42.029292,387.945749 42.4571151,389.38286 43.1295481,391.005337 C42.4571151,393.414816 41.5372954,395.570483 40.2724053,396.719622 C38.8419694,398.165307 37.408762,399.083461 35.986691,399.576765 C35.9969246,401.518603 36.2964008,402.855915 35.986691,403.86248 C36.2964008,407.127394 35.0450182,409.752118 33.1295481,412.433908 C30.0394128,414.183278 27.1409113,415.291051 24.5581195,415.291051 C20.9373833,415.291051 18.4239225,414.372897 15.986691,412.433908 C14.1884103,410.700223 13.1295481,408.504637 13.1295481,405.291051 C13.1295481,403.754114 14.220497,402.65632 15.986691,402.433908 C18.3276604,402.65632 19.2902624,403.534555 18.8438338,405.291051 C19.2902624,406.32898 18.6913101,407.047536 17.4152624,408.148194 C16.5521625,407.766103 16.081557,408.18526 15.986691,408.148194 C16.081557,409.26311 16.4024244,410.061505 17.4152624,411.005337 C18.2848743,413.135373 20.4025986,414.153326 23.1295481,413.86248 C25.6649017,414.153326 27.4831499,413.48467 28.8438338,412.433908 C30.2212588,410.810006 30.9057758,409.043557 30.2724053,406.719622 C30.9057758,405.330964 30.5421262,403.983672 30.2724053,402.433908 C29.0875058,401.62837 27.8040365,400.281079 25.986691,398.148194 L23.1295481,396.719622 C21.5149554,395.111403 20.2528772,393.83397 20.2724053,392.433908 C18.9693887,391.837952 18.6485213,390.60044 18.8438338,389.576765 C18.6485213,385.410793 20.9373749,382.396851 25.986691,379.576765 C24.5311429,378.404815 24.0391463,376.847944 24.5581195,375.291051 C24.0391463,372.616386 25.2263554,370.231181 27.4152624,368.148194 C29.9752631,366.279065 32.8095912,365.291051 35.986691,365.291051 C38.7992045,365.291051 41.1201448,365.959707 43.1295481,366.719622 C45.0133934,368.634371 45.986691,370.241141 45.986691,372.433908 L45.986691,372.433908 Z M38.8438338,395.291051 C38.8438338,392.347743 36.8225144,389.476531 33.1295481,386.719622 L30.2724053,383.86248 C28.8892707,382.939853 27.6503975,381.819877 27.4152624,381.005337 C24.3901559,382.675145 23.1295481,384.568923 23.1295481,386.719622 C23.1295481,388.478717 24.672706,390.576127 27.4152624,392.433908 L30.2724053,395.291051 C32.779824,396.909166 34.257778,398.273501 35.986691,399.576765 C37.6918991,398.354955 38.8438338,396.746261 38.8438338,395.291051 L38.8438338,395.291051 Z" id="§" fill="#7A4E24" transform="translate(29.558120, 390.291051) rotate(-88.000000) translate(-29.558120, -390.291051) "></path>
        <path d="M845.857143,296.142857 C845.857143,296.824356 845.546971,297.642711 844.428571,297.571429 C844.306265,298.920163 843.504097,299.239521 843,299 C841.707213,299.239521 841.001305,299.009982 840.142857,299 C839.803382,298.091814 839.503906,297.522957 840.142857,296.142857 C839.503906,296.085825 839.717818,295.546908 840.142857,294.714286 C840.445128,294.988023 841.04408,294.728544 841.571429,294.714286 C842.370352,294.329341 842.584263,294.129742 843,293.285714 C842.584263,292.85229 841.899746,291.954096 840.142857,291.857143 C839.161637,290.357281 837.621474,289.958084 835.857143,290.428571 C833.771009,289.958084 832.059716,290.53692 830.142857,291.857143 C829.492739,292.852301 828.851004,294.389212 828.714286,296.142857 C828.851004,297.662681 829.214654,298.840314 830.142857,300.428571 C830.369794,300.397208 831.311005,301.295403 833,301.857143 L835.857143,304.714286 C838.755222,307.582846 840.402341,309.219556 841.571429,310.428571 C841.899744,311.654698 842.327567,313.091809 843,314.714286 C842.327567,317.123765 841.407747,319.279432 840.142857,320.428571 C838.712421,321.874256 837.279214,322.79241 835.857143,323.285714 C835.867377,325.227552 836.166853,326.564864 835.857143,327.571429 C836.166853,330.836343 834.91547,333.461067 833,336.142857 C829.909865,337.892227 827.011363,339 824.428571,339 C820.807835,339 818.294374,338.081846 815.857143,336.142857 C814.058862,334.409172 813,332.213586 813,329 C813,327.463063 814.090949,326.365269 815.857143,326.142857 C818.198112,326.365269 819.160714,327.243504 818.714286,329 C819.160714,330.037929 818.561762,330.756485 817.285714,331.857143 C816.422614,331.475051 815.952009,331.894209 815.857143,331.857143 C815.952009,332.972059 816.272876,333.770454 817.285714,334.714286 C818.155326,336.844322 820.273051,337.862275 823,337.571429 C825.535354,337.862275 827.353602,337.193619 828.714286,336.142857 C830.091711,334.518955 830.776228,332.752506 830.142857,330.428571 C830.776228,329.039913 830.412578,327.692621 830.142857,326.142857 C828.957958,325.337319 827.674488,323.990028 825.857143,321.857143 L823,320.428571 C821.385407,318.820351 820.123329,317.542919 820.142857,316.142857 C818.839841,315.546901 818.518973,314.309389 818.714286,313.285714 C818.518973,309.119742 820.807827,306.1058 825.857143,303.285714 C824.401595,302.113764 823.909598,300.556893 824.428571,299 C823.909598,296.325335 825.096807,293.94013 827.285714,291.857143 C829.845715,289.988014 832.680043,289 835.857143,289 C838.669656,289 840.990597,289.668656 843,290.428571 C844.883845,292.34332 845.857143,293.95009 845.857143,296.142857 L845.857143,296.142857 Z M838.714286,319 C838.714286,316.056692 836.692966,313.18548 833,310.428571 L830.142857,307.571429 C828.759723,306.648802 827.520849,305.528826 827.285714,304.714286 C824.260608,306.384094 823,308.277872 823,310.428571 C823,312.187666 824.543158,314.285076 827.285714,316.142857 L830.142857,319 C832.650276,320.618115 834.12823,321.98245 835.857143,323.285714 C837.562351,322.063904 838.714286,320.45521 838.714286,319 L838.714286,319 Z" id="§" fill="#DEBA98" transform="translate(829.428571, 314.000000) rotate(-37.000000) translate(-829.428571, -314.000000) "></path>
        <path d="M910.594388,375.995706 C910.594388,376.677205 910.284216,377.49556 909.165816,377.424277 C909.04351,378.773012 908.241342,379.09237 907.737245,378.852849 C906.444458,379.09237 905.73855,378.862831 904.880102,378.852849 C904.540627,377.944663 904.241151,377.375806 904.880102,375.995706 C904.241151,375.938673 904.455062,375.399757 904.880102,374.567135 C905.182373,374.840872 905.781325,374.581393 906.308673,374.567135 C907.107597,374.18219 907.321508,373.982591 907.737245,373.138563 C907.321508,372.705139 906.636991,371.806945 904.880102,371.709992 C903.898882,370.21013 902.358719,369.810933 900.594388,370.28142 C898.508253,369.810933 896.796961,370.389769 894.880102,371.709992 C894.229984,372.70515 893.588249,374.242061 893.45153,375.995706 C893.588249,377.51553 893.951899,378.693163 894.880102,380.28142 C895.107038,380.250057 896.048249,381.148252 897.737245,381.709992 L900.594388,384.567135 C903.492466,387.435694 905.139585,389.072405 906.308673,390.28142 C906.636989,391.507546 907.064812,392.944658 907.737245,394.567135 C907.064812,396.976614 906.144992,399.132281 904.880102,400.28142 C903.449666,401.727105 902.016459,402.645259 900.594388,403.138563 C900.604621,405.080401 900.904097,406.417713 900.594388,407.424277 C900.904097,410.689191 899.652715,413.313916 897.737245,415.995706 C894.647109,417.745075 891.748608,418.852849 889.165816,418.852849 C885.54508,418.852849 883.031619,417.934694 880.594388,415.995706 C878.796107,414.262021 877.737245,412.066434 877.737245,408.852849 C877.737245,407.315912 878.828194,406.218118 880.594388,405.995706 C882.935357,406.218118 883.897959,407.096353 883.45153,408.852849 C883.897959,409.890778 883.299007,410.609334 882.022959,411.709992 C881.159859,411.3279 880.689254,411.747058 880.594388,411.709992 C880.689254,412.824908 881.010121,413.623303 882.022959,414.567135 C882.892571,416.69717 885.010295,417.715124 887.737245,417.424277 C890.272598,417.715124 892.090846,417.046468 893.45153,415.995706 C894.828955,414.371804 895.513472,412.605355 894.880102,410.28142 C895.513472,408.892761 895.149823,407.54547 894.880102,405.995706 C893.695202,405.190168 892.411733,403.842876 890.594388,401.709992 L887.737245,400.28142 C886.122652,398.6732 884.860574,397.395768 884.880102,395.995706 C883.577085,395.39975 883.256218,394.162237 883.45153,393.138563 C883.256218,388.972591 885.545071,385.958649 890.594388,383.138563 C889.138839,381.966613 888.646843,380.409742 889.165816,378.852849 C888.646843,376.178184 889.834052,373.792978 892.022959,371.709992 C894.58296,369.840863 897.417288,368.852849 900.594388,368.852849 C903.406901,368.852849 905.727841,369.521505 907.737245,370.28142 C909.62109,372.196169 910.594388,373.802939 910.594388,375.995706 L910.594388,375.995706 Z M903.45153,398.852849 C903.45153,395.909541 901.430211,393.038329 897.737245,390.28142 L894.880102,387.424277 C893.496967,386.501651 892.258094,385.381675 892.022959,384.567135 C888.997852,386.236942 887.737245,388.13072 887.737245,390.28142 C887.737245,392.040514 889.280403,394.137925 892.022959,395.995706 L894.880102,398.852849 C897.387521,400.470964 898.865475,401.835298 900.594388,403.138563 C902.299596,401.916753 903.45153,400.308059 903.45153,398.852849 L903.45153,398.852849 Z" id="§" fill="#AF8F32" transform="translate(894.165816, 393.852849) rotate(69.000000) translate(-894.165816, -393.852849) "></path>
        <path d="M864.161877,370.648849 C864.161877,371.330348 863.851705,372.148703 862.733306,372.07742 C862.611,373.426155 861.808831,373.745513 861.304734,373.505992 C860.011947,373.745513 859.306039,373.515974 858.447591,373.505992 C858.108117,372.597806 857.808641,372.028949 858.447591,370.648849 C857.808641,370.591816 858.022552,370.052899 858.447591,369.220277 C858.749862,369.494014 859.348815,369.234536 859.876163,369.220277 C860.675086,368.835332 860.888998,368.635734 861.304734,367.791706 C860.888998,367.358282 860.204481,366.460088 858.447591,366.363135 C857.466372,364.863273 855.926209,364.464076 854.161877,364.934563 C852.075743,364.464076 850.364451,365.042912 848.447591,366.363135 C847.797473,367.358293 847.155739,368.895204 847.01902,370.648849 C847.155739,372.168673 847.519388,373.346306 848.447591,374.934563 C848.674528,374.9032 849.615739,375.801395 851.304734,376.363135 L854.161877,379.220277 C857.059956,382.088837 858.707075,383.725547 859.876163,384.934563 C860.204478,386.160689 860.632301,387.597801 861.304734,389.220277 C860.632301,391.629757 859.712482,393.785424 858.447591,394.934563 C857.017156,396.380247 855.583948,397.298402 854.161877,397.791706 C854.172111,399.733544 854.471587,401.070856 854.161877,402.07742 C854.471587,405.342334 853.220204,407.967058 851.304734,410.648849 C848.214599,412.398218 845.316097,413.505992 842.733306,413.505992 C839.112569,413.505992 836.599109,412.587837 834.161877,410.648849 C832.363596,408.915164 831.304734,406.719577 831.304734,403.505992 C831.304734,401.969055 832.395683,400.871261 834.161877,400.648849 C836.502847,400.871261 837.465449,401.749496 837.01902,403.505992 C837.465449,404.543921 836.866496,405.262477 835.590449,406.363135 C834.727349,405.981043 834.256743,406.400201 834.161877,406.363135 C834.256743,407.47805 834.577611,408.276446 835.590449,409.220277 C836.46006,411.350313 838.577785,412.368267 841.304734,412.07742 C843.840088,412.368267 845.658336,411.699611 847.01902,410.648849 C848.396445,409.024947 849.080962,407.258498 848.447591,404.934563 C849.080962,403.545904 848.717312,402.198612 848.447591,400.648849 C847.262692,399.843311 845.979223,398.496019 844.161877,396.363135 L841.304734,394.934563 C839.690142,393.326343 838.428063,392.048911 838.447591,390.648849 C837.144575,390.052893 836.823707,388.81538 837.01902,387.791706 C836.823707,383.625734 839.112561,380.611792 844.161877,377.791706 C842.706329,376.619756 842.214332,375.062885 842.733306,373.505992 C842.214332,370.831327 843.401542,368.446121 845.590449,366.363135 C848.150449,364.494006 850.984777,363.505992 854.161877,363.505992 C856.974391,363.505992 859.295331,364.174648 861.304734,364.934563 C863.18858,366.849312 864.161877,368.456082 864.161877,370.648849 L864.161877,370.648849 Z M857.01902,393.505992 C857.01902,390.562684 854.997701,387.691472 851.304734,384.934563 L848.447591,382.07742 C847.064457,381.154794 845.825584,380.034818 845.590449,379.220277 C842.565342,380.890085 841.304734,382.783863 841.304734,384.934563 C841.304734,386.693657 842.847892,388.791067 845.590449,390.648849 L848.447591,393.505992 C850.95501,395.124107 852.432964,396.488441 854.161877,397.791706 C855.867085,396.569895 857.01902,394.961202 857.01902,393.505992 L857.01902,393.505992 Z" id="§" fill="#7A4E24" transform="translate(847.733306, 388.505992) rotate(40.000000) translate(-847.733306, -388.505992) "></path>
        <path d="M765.857143,199.142857 C765.857143,199.824356 765.546971,200.642711 764.428571,200.571429 C764.306265,201.920163 763.504097,202.239521 763,202 C761.707213,202.239521 761.001305,202.009982 760.142857,202 C759.803382,201.091814 759.503906,200.522957 760.142857,199.142857 C759.503906,199.085825 759.717818,198.546908 760.142857,197.714286 C760.445128,197.988023 761.04408,197.728544 761.571429,197.714286 C762.370352,197.329341 762.584263,197.129742 763,196.285714 C762.584263,195.85229 761.899746,194.954096 760.142857,194.857143 C759.161637,193.357281 757.621474,192.958084 755.857143,193.428571 C753.771009,192.958084 752.059716,193.53692 750.142857,194.857143 C749.492739,195.852301 748.851004,197.389212 748.714286,199.142857 C748.851004,200.662681 749.214654,201.840314 750.142857,203.428571 C750.369794,203.397208 751.311005,204.295403 753,204.857143 L755.857143,207.714286 C758.755222,210.582846 760.402341,212.219556 761.571429,213.428571 C761.899744,214.654698 762.327567,216.091809 763,217.714286 C762.327567,220.123765 761.407747,222.279432 760.142857,223.428571 C758.712421,224.874256 757.279214,225.79241 755.857143,226.285714 C755.867377,228.227552 756.166853,229.564864 755.857143,230.571429 C756.166853,233.836343 754.91547,236.461067 753,239.142857 C749.909865,240.892227 747.011363,242 744.428571,242 C740.807835,242 738.294374,241.081846 735.857143,239.142857 C734.058862,237.409172 733,235.213586 733,232 C733,230.463063 734.090949,229.365269 735.857143,229.142857 C738.198112,229.365269 739.160714,230.243504 738.714286,232 C739.160714,233.037929 738.561762,233.756485 737.285714,234.857143 C736.422614,234.475051 735.952009,234.894209 735.857143,234.857143 C735.952009,235.972059 736.272876,236.770454 737.285714,237.714286 C738.155326,239.844322 740.273051,240.862275 743,240.571429 C745.535354,240.862275 747.353602,240.193619 748.714286,239.142857 C750.091711,237.518955 750.776228,235.752506 750.142857,233.428571 C750.776228,232.039913 750.412578,230.692621 750.142857,229.142857 C748.957958,228.337319 747.674488,226.990028 745.857143,224.857143 L743,223.428571 C741.385407,221.820351 740.123329,220.542919 740.142857,219.142857 C738.839841,218.546901 738.518973,217.309389 738.714286,216.285714 C738.518973,212.119742 740.807827,209.1058 745.857143,206.285714 C744.401595,205.113764 743.909598,203.556893 744.428571,202 C743.909598,199.325335 745.096807,196.94013 747.285714,194.857143 C749.845715,192.988014 752.680043,192 755.857143,192 C758.669656,192 760.990597,192.668656 763,193.428571 C764.883845,195.34332 765.857143,196.95009 765.857143,199.142857 L765.857143,199.142857 Z M758.714286,222 C758.714286,219.056692 756.692966,216.18548 753,213.428571 L750.142857,210.571429 C748.759723,209.648802 747.520849,208.528826 747.285714,207.714286 C744.260608,209.384094 743,211.277872 743,213.428571 C743,215.187666 744.543158,217.285076 747.285714,219.142857 L750.142857,222 C752.650276,223.618115 754.12823,224.98245 755.857143,226.285714 C757.562351,225.063904 758.714286,223.45521 758.714286,222 L758.714286,222 Z" id="§" fill="#A93C29" transform="translate(749.428571, 217.000000) rotate(31.000000) translate(-749.428571, -217.000000) "></path>
        <path d="M164.857143,94.1428571 C164.857143,94.8243563 164.546971,95.6427114 163.428571,95.5714286 C163.306265,96.9201629 162.504097,97.239521 162,97 C160.707213,97.239521 160.001305,97.0099823 159.142857,97 C158.803382,96.0918141 158.503906,95.5229575 159.142857,94.1428571 C158.503906,94.0858246 158.717818,93.5469078 159.142857,92.7142857 C159.445128,92.9880228 160.04408,92.7285443 160.571429,92.7142857 C161.370352,92.3293407 161.584263,92.1297419 162,91.2857143 C161.584263,90.8522904 160.899746,89.9540958 159.142857,89.8571429 C158.161637,88.3572814 156.621474,87.9580838 154.857143,88.4285714 C152.771009,87.9580838 151.059716,88.5369204 149.142857,89.8571429 C148.492739,90.8523012 147.851004,92.389212 147.714286,94.1428571 C147.851004,95.6626814 148.214654,96.8403144 149.142857,98.4285714 C149.369794,98.3972084 150.311005,99.295403 152,99.8571429 L154.857143,102.714286 C157.755222,105.582846 159.402341,107.219556 160.571429,108.428571 C160.899744,109.654698 161.327567,111.091809 162,112.714286 C161.327567,115.123765 160.407747,117.279432 159.142857,118.428571 C157.712421,119.874256 156.279214,120.79241 154.857143,121.285714 C154.867377,123.227552 155.166853,124.564864 154.857143,125.571429 C155.166853,128.836343 153.91547,131.461067 152,134.142857 C148.909865,135.892227 146.011363,137 143.428571,137 C139.807835,137 137.294374,136.081846 134.857143,134.142857 C133.058862,132.409172 132,130.213586 132,127 C132,125.463063 133.090949,124.365269 134.857143,124.142857 C137.198112,124.365269 138.160714,125.243504 137.714286,127 C138.160714,128.037929 137.561762,128.756485 136.285714,129.857143 C135.422614,129.475051 134.952009,129.894209 134.857143,129.857143 C134.952009,130.972059 135.272876,131.770454 136.285714,132.714286 C137.155326,134.844322 139.273051,135.862275 142,135.571429 C144.535354,135.862275 146.353602,135.193619 147.714286,134.142857 C149.091711,132.518955 149.776228,130.752506 149.142857,128.428571 C149.776228,127.039913 149.412578,125.692621 149.142857,124.142857 C147.957958,123.337319 146.674488,121.990028 144.857143,119.857143 L142,118.428571 C140.385407,116.820351 139.123329,115.542919 139.142857,114.142857 C137.839841,113.546901 137.518973,112.309389 137.714286,111.285714 C137.518973,107.119742 139.807827,104.1058 144.857143,101.285714 C143.401595,100.113764 142.909598,98.5568934 143.428571,97 C142.909598,94.3253353 144.096807,91.9401296 146.285714,89.8571429 C148.845715,87.9880141 151.680043,87 154.857143,87 C157.669656,87 159.990597,87.668656 162,88.4285714 C163.883845,90.3433201 164.857143,91.9500904 164.857143,94.1428571 L164.857143,94.1428571 Z M157.714286,117 C157.714286,114.056692 155.692966,111.18548 152,108.428571 L149.142857,105.571429 C147.759723,104.648802 146.520849,103.528826 146.285714,102.714286 C143.260608,104.384094 142,106.277872 142,108.428571 C142,110.187666 143.543158,112.285076 146.285714,114.142857 L149.142857,117 C151.650276,118.618115 153.12823,119.98245 154.857143,121.285714 C156.562351,120.063904 157.714286,118.45521 157.714286,117 L157.714286,117 Z" id="§" fill="#A93C29"></path>
        <path d="M164.386558,216.033379 C164.386558,216.714879 164.076386,217.533234 162.957986,217.461951 C162.83568,218.810685 162.033512,219.130043 161.529415,218.890522 C160.236628,219.130043 159.53072,218.900505 158.672272,218.890522 C158.332797,217.982336 158.033321,217.41348 158.672272,216.033379 C158.033321,215.976347 158.247232,215.43743 158.672272,214.604808 C158.974543,214.878545 159.573495,214.619067 160.100843,214.604808 C160.899767,214.219863 161.113678,214.020264 161.529415,213.176237 C161.113678,212.742813 160.429161,211.844618 158.672272,211.747665 C157.691052,210.247804 156.150889,209.848606 154.386558,210.319094 C152.300423,209.848606 150.589131,210.427443 148.672272,211.747665 C148.022154,212.742824 147.380419,214.279734 147.2437,216.033379 C147.380419,217.553204 147.744069,218.730837 148.672272,220.319094 C148.899208,220.287731 149.840419,221.185925 151.529415,221.747665 L154.386558,224.604808 C157.284636,227.473368 158.931755,229.110078 160.100843,230.319094 C160.429159,231.54522 160.856982,232.982331 161.529415,234.604808 C160.856982,237.014288 159.937162,239.169955 158.672272,240.319094 C157.241836,241.764778 155.808629,242.682932 154.386558,243.176237 C154.396791,245.118074 154.696267,246.455386 154.386558,247.461951 C154.696267,250.726865 153.444885,253.351589 151.529415,256.033379 C148.439279,257.782749 145.540778,258.890522 142.957986,258.890522 C139.33725,258.890522 136.823789,257.972368 134.386558,256.033379 C132.588277,254.299695 131.529415,252.104108 131.529415,248.890522 C131.529415,247.353585 132.620364,246.255792 134.386558,246.033379 C136.727527,246.255792 137.690129,247.134027 137.2437,248.890522 C137.690129,249.928452 137.091177,250.647007 135.815129,251.747665 C134.952029,251.365574 134.481424,251.784731 134.386558,251.747665 C134.481424,252.862581 134.802291,253.660976 135.815129,254.604808 C136.684741,256.734844 138.802465,257.752798 141.529415,257.461951 C144.064768,257.752798 145.883016,257.084142 147.2437,256.033379 C148.621125,254.409478 149.305642,252.643028 148.672272,250.319094 C149.305642,248.930435 148.941993,247.583143 148.672272,246.033379 C147.487372,245.227842 146.203903,243.88055 144.386558,241.747665 L141.529415,240.319094 C139.914822,238.710874 138.652744,237.433441 138.672272,236.033379 C137.369255,235.437424 137.048388,234.199911 137.2437,233.176237 C137.048388,229.010264 139.337241,225.996322 144.386558,223.176237 C142.931009,222.004286 142.439013,220.447416 142.957986,218.890522 C142.439013,216.215858 143.626222,213.830652 145.815129,211.747665 C148.37513,209.878536 151.209458,208.890522 154.386558,208.890522 C157.199071,208.890522 159.520011,209.559178 161.529415,210.319094 C163.41326,212.233842 164.386558,213.840613 164.386558,216.033379 L164.386558,216.033379 Z M157.2437,238.890522 C157.2437,235.947215 155.222381,233.076003 151.529415,230.319094 L148.672272,227.461951 C147.289137,226.539325 146.050264,225.419348 145.815129,224.604808 C142.790022,226.274616 141.529415,228.168394 141.529415,230.319094 C141.529415,232.078188 143.072573,234.175598 145.815129,236.033379 L148.672272,238.890522 C151.179691,240.508637 152.657645,241.872972 154.386558,243.176237 C156.091766,241.954426 157.2437,240.345733 157.2437,238.890522 L157.2437,238.890522 Z" id="§" fill="#7A4E24" transform="translate(147.957986, 233.890522) rotate(-68.000000) translate(-147.957986, -233.890522) "></path>
        <rect id="Rectangle-2" fill="#000000" opacity="0.499832589" x="0" y="0" width="962" height="407"></rect>
    </g>
</svg>