<?xml version="1.0" encoding="UTF-8"?>
<svg width="959px" height="407px" viewBox="0 0 959 407" version="1.1" xmlns="http://www.w3.org/2000/svg" xmlns:xlink="http://www.w3.org/1999/xlink">
    <!-- Generator: Sketch 50.2 (55047) - http://www.bohemiancoding.com/sketch -->
    <title>sm - max</title>
    <desc>Created with Sketch.</desc>
    <defs>
        <polygon id="path-1" points="3.40437248e-15 236.986535 453 236.986535 453 9.12996396e-14 2.88657986e-15 9.12996396e-14"></polygon>
        <polygon id="path-3" points="0.446094198 0.559528421 241.345207 0.559528421 241.345207 6.10454828 145.919115 220.796132 0.446094198 220.796132 0.446094198 0.559528421"></polygon>
    </defs>
    <g id="sm---max" stroke="none" stroke-width="1" fill="none" fill-rule="evenodd">
        <g id="Box-Office-Rising" transform="translate(0.000000, -46.000000)">
            <g id="Box-Office" transform="translate(0.000000, 215.000000)">
                <mask id="mask-2" fill="white">
                    <use xlink:href="#path-1"></use>
                </mask>
                <g id="Clip-36"></g>
                <polyline id="Stroke-35" stroke="#FF0000" stroke-width="10" stroke-linecap="round" stroke-linejoin="round" mask="url(#mask-2)" points="-3.24731183 236.986535 51.3797391 186.297619 78.3573888 195.844181 95.6103103 172.847172 124.705714 180.141462 154.267871 147.363546 181.780042 157.949865 242.768827 107.564077 258.742625 120.884154 285.968476 120.884154 306.859699 130.793031 331.974572 106.114817 363.533348 106.31317 378.905704 68.0661372 414.239165 68.0661372 453 1.5489316"></polyline>
                <polyline id="Stroke-37" stroke="#FF0000" stroke-width="10" stroke-linecap="round" stroke-linejoin="round" mask="url(#mask-2)" points="0 230.790809 50.6265959 183.826401 77.3786513 193.46062 94.7023441 170.580154 124.205365 177.805818 153.708386 144.087658 181.840595 154.925351 242.989485 104.348112 259.550483 118.798637 286.302539 118.798637 306.685502 128.432856 330.889581 104.348112 362.738439 104.348112 378.025449 65.900354 413.695422 65.900354 449.752688 4.64679481"></polyline>
                <polyline id="Stroke-38" stroke="#FF0000" stroke-width="2" stroke-linecap="round" stroke-linejoin="round" mask="url(#mask-2)" points="0 224.595082 50.0201775 178.366319 76.3662553 187.602001 93.0648445 165.180136 122.575509 171.997406 152.528672 138.201169 180.865569 149.218293 242.988636 98.342917 260.212957 113.009239 286.302539 113.633422 305.764833 122.358409 329.1026 99.2484231 359.793827 99.2484231 375.187003 60.9758054 411.294379 60.9758054 447.310028 0 449.752688 0"></polyline>
            </g>
            <g id="Story" transform="translate(446.400000, 0.000000)">
                <mask id="mask-4" fill="white">
                    <use xlink:href="#path-3"></use>
                </mask>
                <g id="Clip-41"></g>
                <polyline id="Fill-40" fill="#010000" mask="url(#mask-4)" points="1.5238116 190.880012 29.8149242 209.3903 0.446094198 220.796132 1.5238116 190.880012"></polyline>
                <polygon id="Stroke-42" stroke="#010000" stroke-width="8.175" stroke-linecap="round" stroke-linejoin="round" mask="url(#mask-4)" points="136.039765 -34.740498 3.14822116 145.653019 0.446094198 220.796132 74.2033584 192.1475 241.345207 -34.7397208"></polygon>
                <path d="M13.3127372,148.57267 L11.8111891,190.332141 L26.7631782,200.119225 L67.7535454,184.192871 L118.524177,117.38984 C118.524177,117.38984 82.9215727,117.271717 76.7545884,107.958677 C70.0804915,97.8786175 45.9567727,104.700202 45.9567727,104.700202 L13.3127372,148.57267 Z" id="Fill-43" fill="#FF0000" mask="url(#mask-4)"></path>
                <path d="M13.3127372,148.57267 L11.8111891,190.332141 L26.7631782,200.119225 L67.7535454,184.194425 L105.379653,134.687039 C105.379653,134.687039 96.2145201,131.001146 78.89683,131.001146 C65.1973679,131.001146 53.8240273,135.468048 46.7219768,130.406647 C37.9963413,124.188887 36.8031836,117.002056 36.8031836,117.002056 L13.3127372,148.57267 Z" id="Fill-44" stroke="#FFFFFF" stroke-width="3" fill="#FF0000" mask="url(#mask-4)"></path>
                <path d="M19.9299386,139.635757 L13.3127372,148.528374 L11.8111891,190.288622 L26.7631782,200.073375 L67.7535454,184.150129 L84.5105256,162.100823 C84.5105256,162.100823 90.4408573,150.015787 73.1248164,150.015787 C60.658916,150.015787 48.8015509,163.890537 36.3653352,157.826648 C21.7242102,150.688775 19.9299386,139.635757 19.9299386,139.635757" id="Fill-45" stroke="#FFFFFF" stroke-width="3" fill="#FF0000" mask="url(#mask-4)"></path>
                <path d="M40.6184846,147.05184 C40.6184846,149.627225 38.4020314,151.716131 35.6693952,151.716131 C32.9359345,151.716131 30.7203058,149.627225 30.7203058,147.05184 C30.7203058,144.474124 32.9359345,142.387549 35.6693952,142.387549 C38.4020314,142.387549 40.6184846,144.474124 40.6184846,147.05184" id="Fill-46" fill="#FFFFFF" mask="url(#mask-4)"></path>
                <path d="M28.5252915,167.926136 C28.5252915,169.429092 27.233185,170.646066 25.6409338,170.646066 C24.0462089,170.646066 22.754927,169.429092 22.754927,167.926136 C22.754927,166.423958 24.0462089,165.206206 25.6409338,165.206206 C27.233185,165.206206 28.5252915,166.423958 28.5252915,167.926136" id="Fill-47" fill="#FFFFFF" mask="url(#mask-4)"></path>
                <path d="M69.0464765,179.264358 C65.6211986,179.264358 62.8448601,176.647785 62.8448601,173.419617 C62.8448601,170.189118 65.6211986,167.572545 69.0464765,167.572545 C72.4725788,167.572545 75.2489174,170.189118 75.2489174,173.419617 C75.2489174,176.647785 72.4725788,179.264358 69.0464765,179.264358 Z" id="Fill-48" fill="#FFFFFF" mask="url(#mask-4)"></path>
                <path d="M47.1243686,172.579547 C47.1243686,174.14001 45.7811386,175.405943 44.1245706,175.405943 C42.4671782,175.405943 41.1239481,174.14001 41.1239481,172.579547 C41.1239481,171.016753 42.4671782,169.75082 44.1245706,169.75082 C45.7811386,169.75082 47.1243686,171.016753 47.1243686,172.579547" id="Fill-49" fill="#FFFFFF" mask="url(#mask-4)"></path>
                <path d="M24.0140505,197.883443 C21.2814143,197.883443 19.0649611,195.79376 19.0649611,193.219152 C19.0649611,190.642213 21.2814143,188.553307 24.0140505,188.553307 C26.7475113,188.553307 28.9631399,190.642213 28.9631399,193.219152 C28.9631399,195.79376 26.7475113,197.883443 24.0140505,197.883443 Z" id="Fill-50" fill="#FFFFFF" mask="url(#mask-4)"></path>
                <path d="M40.3348314,131.869969 C40.3348314,133.759932 38.7079481,135.293972 36.7017611,135.293972 C34.6947495,135.293972 33.0670416,133.759932 33.0670416,131.869969 C33.0670416,129.977675 34.6947495,128.444412 36.7017611,128.444412 C38.7079481,128.444412 40.3348314,129.977675 40.3348314,131.869969" id="Fill-51" fill="#FFFFFF" mask="url(#mask-4)"></path>
                <path d="M50.809387,142.051832 C50.809387,143.897499 49.2212587,145.39346 47.2628969,145.39346 C45.3045352,145.39346 43.7188805,143.897499 43.7188805,142.051832 C43.7188805,140.204611 45.3045352,138.709427 47.2628969,138.709427 C49.2212587,138.709427 50.809387,140.204611 50.809387,142.051832" id="Fill-52" fill="#FFFFFF" mask="url(#mask-4)"></path>
                <path d="M71.1112082,140.476604 C71.1112082,142.322271 69.5230799,143.819009 67.5647181,143.819009 C65.6063563,143.819009 64.0190526,142.322271 64.0190526,140.476604 C64.0190526,138.630938 65.6063563,137.134199 67.5647181,137.134199 C69.5230799,137.134199 71.1112082,138.630938 71.1112082,140.476604" id="Fill-53" fill="#FFFFFF" mask="url(#mask-4)"></path>
                <path d="M60.6622143,123.540767 C60.6622143,125.385656 59.0749106,126.882395 57.118198,126.882395 C55.1598362,126.882395 53.5717078,125.385656 53.5717078,123.540767 C53.5717078,121.694323 55.1598362,120.198362 57.118198,120.198362 C59.0749106,120.198362 60.6622143,121.694323 60.6622143,123.540767" id="Fill-54" fill="#FFFFFF" mask="url(#mask-4)"></path>
                <path d="M101.617125,124.721994 C101.617125,126.56766 100.029821,128.063622 98.0714594,128.063622 C96.1147468,128.063622 94.5266184,126.56766 94.5266184,124.721994 C94.5266184,122.87555 96.1147468,121.379588 98.0714594,121.379588 C100.029821,121.379588 101.617125,122.87555 101.617125,124.721994" id="Fill-55" fill="#FFFFFF" mask="url(#mask-4)"></path>
                <path d="M64.2087044,110.937389 C64.2087044,113.540751 61.9683386,115.651416 59.2068423,115.651416 C56.4445215,115.651416 54.2041556,113.540751 54.2041556,110.937389 C54.2041556,108.333251 56.4445215,106.221808 59.2068423,106.221808 C61.9683386,106.221808 64.2087044,108.333251 64.2087044,110.937389" id="Fill-56" fill="#FFFFFF" mask="url(#mask-4)"></path>
                <path d="M83.2307877,118.814306 C83.2307877,121.311979 81.0803003,123.337938 78.4292969,123.337938 C75.7799427,123.337938 73.6302799,121.311979 73.6302799,118.814306 C73.6302799,116.315079 75.7799427,114.289897 78.4292969,114.289897 C81.0803003,114.289897 83.2307877,116.315079 83.2307877,118.814306" id="Fill-57" fill="#FFFFFF" mask="url(#mask-4)"></path>
                <path d="M87.4097256,139.688602 C87.4097256,141.534268 85.8215973,143.031007 83.8632355,143.031007 C81.9048737,143.031007 80.3183945,141.534268 80.3183945,139.688602 C80.3183945,137.842935 81.9048737,136.346196 83.8632355,136.346196 C85.8215973,136.346196 87.4097256,137.842935 87.4097256,139.688602" id="Fill-58" fill="#FFFFFF" mask="url(#mask-4)"></path>
            </g>
        </g>
        <text id="THE-DEAL" font-family="EurostileNextW1G-Bold, Eurostile Next W1G" font-size="42" font-weight="bold" fill="#000000">
            <tspan x="134.27" y="77">THE DEAL</tspan>
        </text>
        <g id="Group-2" transform="translate(290.000000, 292.000000)">
            <text id="INTERDEPENDENT" font-family="SFMoviePosterCondensed, SF Movie Poster Condensed" font-size="48" font-style="condensed" font-weight="800" fill="#999999">
                <tspan x="0.2265625" y="115">INTERDEPENDENT</tspan>
            </text>
            <text id="AMELL" font-family="SFMoviePosterCondensed, SF Movie Poster Condensed" font-size="48" font-style="condensed" font-weight="800" fill="#999999">
                <tspan x="167.144531" y="114">AMELL</tspan>
            </text>
            <text id="CHRIS" font-family="SFMoviePosterCondensed, SF Movie Poster Condensed" font-size="48" font-style="condensed" font-weight="800" fill="#999999">
                <tspan x="131.039062" y="114">CHRIS</tspan>
            </text>
            <g id="Group" transform="translate(235.000000, 0.000000)">
                <text id="EASON-0" font-family="EurostileNextW1G-Regular, Eurostile Next W1G" font-size="42" font-weight="normal">
                    <tspan x="31.3620488" y="42.5" fill="#000000">EASON </tspan>
                    <tspan x="175.128049" y="42.5" font-family="EurostileNextW1G-Bold, Eurostile Next W1G" font-weight="bold" fill="#FF0000">0</tspan>
                </text>
                <path d="M37.6,8 C37.6,8.57245928 37.3394557,9.25987756 36.4,9.2 C36.297263,10.3329368 35.6234416,10.6011976 35.2,10.4 C34.1140591,10.6011976 33.5210963,10.4083852 32.8,10.4 C32.5148412,9.63712382 32.2632812,9.15928429 32.8,8 C32.2632812,7.95209262 32.442967,7.49940254 32.8,6.8 C33.0539075,7.02993911 33.5570275,6.81197722 34,6.8 C34.6710955,6.4766462 34.8507812,6.30898321 35.2,5.6 C34.8507812,5.23592395 34.275787,4.48144048 32.8,4.4 C31.9757755,3.14011641 30.6820384,2.80479042 29.2,3.2 C27.4476473,2.80479042 26.0101616,3.2910131 24.4,4.4 C23.8539009,5.23593301 23.3148437,6.52693806 23.2,8 C23.3148437,9.27665241 23.6203094,10.2658641 24.4,11.6 C24.5906268,11.573655 25.3812439,12.3281385 26.8,12.8 L29.2,15.2 C31.6343861,17.6095902 33.0179661,18.9844268 34,20 C34.2757848,21.029946 34.6351562,22.2371195 35.2,23.6 C34.6351562,25.6239628 33.8625077,27.4347232 32.8,28.4 C31.5984339,29.6143748 30.3945397,30.3856246 29.2,30.8 C29.2085963,32.4311438 29.4601562,33.5544858 29.2,34.4 C29.4601562,37.1425277 28.4089949,39.3472961 26.8,41.6 C24.2042864,43.0694704 21.7695451,44 19.6,44 C16.5585815,44 14.4472745,43.2287502 12.4,41.6 C10.8894442,40.1437049 10,38.2994119 10,35.6 C10,34.3089728 10.9163971,33.3868263 12.4,33.2 C14.3664143,33.3868263 15.175,34.1245435 14.8,35.6 C15.175,36.4718606 14.67188,37.0754474 13.6,38 C12.874996,37.6790433 12.4796875,38.0311355 12.4,38 C12.4796875,38.9365293 12.7492161,39.6071813 13.6,40.4 C14.330474,42.1892301 16.1093624,43.0443114 18.4,42.8 C20.529697,43.0443114 22.0570255,42.4826403 23.2,41.6 C24.357037,40.2359225 24.9320312,38.752105 24.4,36.8 C24.9320312,35.6335266 24.6265656,34.5018014 24.4,33.2 C23.4046844,32.5233483 22.3265702,31.3916231 20.8,29.6 L18.4,28.4 C17.0437421,27.0490953 15.9835964,25.9760521 16,24.8 C14.9054661,24.299397 14.6359375,23.2598864 14.8,22.4 C14.6359375,18.9005832 16.5585745,16.368872 20.8,14 C19.5773396,13.0155618 19.1640625,11.7077905 19.6,10.4 C19.1640625,8.15328168 20.1613182,6.1497089 22,4.4 C24.1504006,2.82993182 26.5312362,2 29.2,2 C31.5625113,2 33.5121012,2.56167103 35.2,3.2 C36.7824301,4.80838885 37.6,6.15807595 37.6,8 L37.6,8 Z M31.6,27.2 C31.6,24.7276215 29.9020917,22.3158035 26.8,20 L24.4,17.6 C23.238167,16.824994 22.1975135,15.8842139 22,15.2 C19.4589106,16.6026386 18.4,18.1934122 18.4,20 C18.4,21.4776391 19.6962526,23.2394636 22,24.8 L24.4,27.2 C26.5062317,28.5592165 27.7477131,29.7052577 29.2,30.8 C30.6323748,29.7736791 31.6,28.4223768 31.6,27.2 L31.6,27.2 Z" id="ยง" fill="#000000"></path>
            </g>
            <g id="ED" transform="translate(96.000000, 85.000000)" fill="#999999" font-family="SFMoviePosterCondensed, SF Movie Poster Condensed" font-size="24" font-style="condensed" font-weight="800">
                <text id="DIRECTOR">
                    <tspan x="2.97460938" y="31">DIRECTOR</tspan>
                </text>
                <text id="EXECUTIVE">
                    <tspan x="0.068359375" y="14">EXECUTIVE</tspan>
                </text>
            </g>
            <g id="llc-series" transform="translate(254.000000, 85.000000)" fill="#999999" font-family="SFMoviePosterCondensed, SF Movie Poster Condensed" font-size="48" font-style="condensed" font-weight="800">
                <text id="an">
                    <tspan x="12.078125" y="29">an   </tspan>
                </text>
                <text id="llc">
                    <tspan x="185.449219" y="29">llc </tspan>
                </text>
                <text id="SERIES">
                    <tspan x="209.253906" y="29">SERIES</tspan>
                </text>
                <text id="PICTURES">
                    <tspan x="129.21875" y="29">PICTURES</tspan>
                </text>
                <text id="INTERDEPENDENT">
                    <tspan x="34.2265625" y="29">INTERDEPENDENT</tspan>
                </text>
            </g>
            <text id="presents" font-family="SFMoviePosterCondensed, SF Movie Poster Condensed" font-size="48" font-style="condensed" font-weight="800" fill="#999999">
                <tspan x="205.054688" y="114">presents</tspan>
            </text>
            <text id="by" font-family="SFMoviePosterCondensed, SF Movie Poster Condensed" font-size="24" font-style="condensed" font-weight="800" fill="#999999">
                <tspan x="541.478516" y="95">by</tspan>
            </text>
            <text id="SEASONRUNNER" font-family="SFMoviePosterCondensed, SF Movie Poster Condensed" font-size="24" font-style="condensed" font-weight="800" fill="#999999">
                <tspan x="504.855469" y="114">SEASONRUNNER</tspan>
            </text>
            <text id="SOME-DUDE" font-family="SFMoviePosterCondensed, SF Movie Poster Condensed" font-size="48" font-style="condensed" font-weight="800" fill="#999999">
                <tspan x="553.433594" y="114">SOME DUDE</tspan>
            </text>
        </g>
    </g>
</svg>