<?xml version="1.0" standalone="no"?>
<!DOCTYPE svg PUBLIC "-//W3C//DTD SVG 20010904//EN"
 "http://www.w3.org/TR/2001/REC-SVG-20010904/DTD/svg10.dtd">
<svg version="1.0" xmlns="http://www.w3.org/2000/svg"
 width="1000.000000pt" height="1000.000000pt" viewBox="0 0 1000.000000 1000.000000"
 preserveAspectRatio="xMidYMid meet">
<metadata>
Created by potrace 1.11, written by Peter Selinger 2001-2013
</metadata>
<g transform="translate(0.000000,1000.000000) scale(0.100000,-0.100000)"
fill="#000000" stroke="none">
<path d="M4768 9965 c-2 -2 -36 -6 -77 -9 -90 -8 -149 -15 -177 -21 -12 -3
-39 -7 -60 -10 -325 -49 -762 -209 -1066 -392 -83 -50 -265 -169 -278 -183 -3
-3 -52 -43 -110 -89 -95 -76 -291 -265 -380 -366 -204 -233 -403 -553 -526
-850 -68 -164 -155 -455 -179 -594 -6 -37 -24 -149 -30 -191 -26 -177 -27
-601 -1 -780 2 -14 7 -46 10 -70 3 -25 8 -56 11 -70 3 -14 8 -41 11 -60 18
-106 102 -406 135 -485 7 -16 13 -32 13 -35 4 -20 61 -147 114 -255 55 -112
91 -175 197 -348 76 -124 237 -319 390 -472 321 -323 679 -556 1102 -719 85
-33 297 -101 345 -110 13 -2 55 -12 93 -21 120 -29 277 -53 410 -63 179 -13
569 -6 658 12 12 3 42 7 67 10 70 9 107 15 225 42 61 14 119 27 129 29 55 12
235 72 336 112 807 316 1447 954 1768 1763 53 133 128 386 148 500 2 14 9 48
14 75 50 257 61 685 24 945 -18 132 -28 187 -48 273 -9 37 -18 80 -21 95 -8
48 -100 322 -140 417 -81 195 -200 414 -323 590 -48 69 -116 160 -132 175 -3
3 -34 39 -69 81 -67 81 -242 255 -326 326 -55 45 -95 78 -110 91 -17 14 -220
156 -240 169 -144 89 -295 169 -450 238 -130 59 -422 154 -524 171 -14 3 -33
7 -41 9 -31 10 -237 46 -290 51 -30 3 -71 8 -90 10 -38 6 -507 14 -512 9z"/>
<path d="M1265 5209 c-176 -46 -326 -153 -419 -301 -20 -31 -36 -60 -36 -63 0
-3 -8 -24 -19 -48 -47 -107 -61 -264 -34 -392 32 -155 138 -318 267 -409 127
-90 246 -129 401 -129 555 -2 879 618 561 1073 -59 84 -159 171 -254 219 -128
65 -329 86 -467 50z"/>
<path d="M8445 5220 c-250 -45 -458 -230 -537 -478 -32 -99 -32 -288 0 -390
67 -214 228 -380 438 -452 134 -46 305 -46 439 0 326 112 518 445 451 780 -27
133 -108 278 -205 368 -60 54 -173 120 -251 146 -93 31 -244 42 -335 26z"/>
<path d="M6121 3744 c-145 -39 -255 -140 -309 -286 -17 -46 -21 -76 -19 -155
2 -90 5 -104 39 -173 93 -192 287 -287 495 -244 205 42 360 243 346 449 -7
119 -48 211 -127 290 -56 56 -126 99 -189 116 -65 17 -177 19 -236 3z m234
-206 c93 -59 136 -136 130 -236 -11 -212 -266 -317 -421 -175 -140 128 -110
339 61 420 68 33 171 29 230 -9z"/>
<path d="M3650 3558 c-390 -58 -679 -386 -685 -778 -6 -368 238 -685 600 -781
110 -29 279 -29 390 0 240 63 433 225 532 446 49 109 66 187 67 310 0 61 -3
128 -7 150 -57 311 -286 556 -592 635 -88 23 -220 30 -305 18z m250 -363 c199
-66 320 -244 308 -455 -7 -116 -46 -201 -132 -285 -96 -95 -202 -137 -330
-130 -93 5 -115 10 -184 42 -63 30 -168 127 -196 183 -97 188 -66 392 79 535
96 95 196 135 330 131 39 -2 95 -11 125 -21z"/>
<path d="M5063 2140 c-82 -17 -165 -75 -212 -149 -106 -166 -41 -390 138 -478
48 -24 68 -28 141 -28 63 0 97 5 130 20 193 84 267 317 154 487 -78 117 -216
175 -351 148z"/>
<path d="M4446 983 c-251 -58 -420 -325 -361 -575 39 -168 185 -324 340 -362
59 -15 71 -17 130 -18 131 -2 255 49 350 146 101 103 144 213 140 357 -2 83
-14 126 -56 210 -51 103 -182 208 -299 239 -65 18 -176 19 -244 3z"/>
</g>
</svg>
